<svg version="1.1" xmlns="http://www.w3.org/2000/svg" viewBox="0 0 595.5 266.4217497970909" width="595.5" height="266.4217497970909">
  <!-- svg-source:excalidraw -->
  
  <defs>
    <style>
      @font-face {
        font-family: "Virgil";
        src: url("https://excalidraw.com/FG_Virgil.woff2");
      }
      @font-face {
        font-family: "Cascadia";
        src: url("https://excalidraw.com/Cascadia.woff2");
      }
    </style>
  </defs>
  <g transform="translate(111.5 133.42174979709088) rotate(0 66.5 21.5)"><path d="M0.18183600343763828 1.4057219382375479 L132.60368066467345 1.2693644519895315 L134.49146198667586 41.361558830365546 L-1.193699425086379 41.935051655396826" stroke="none" stroke-width="0" fill="#868e9655"></path><path d="M1.0110181327909231 -1.1437120493501425 C32.159767798800026 -2.511689028525725, 62.8994350520894 -1.9203592751268297, 131.40975741110742 1.3999915663152933 M0.5412807138636708 0.16133891325443983 C33.19345078179613 -0.21865003633312874, 65.76953766644002 -0.7947442762833088, 133.71894287783653 0.09165604691952467 M134.05587414465845 0.10083680786192417 C132.1198758570198 15.578090963047002, 133.29196525492705 27.82029300946743, 131.63738892041147 44.40057718195022 M133.35526179987937 0.8423419771715999 C133.46764063763433 12.030080215539785, 132.6995390348416 22.309084132313732, 132.63893916923553 42.2326381681487 M133.14973185025156 42.70614349283279 C83.3482469449751 41.43191814058461, 35.35240130666642 41.219350036317486, -0.7139685992151499 43.021747285500176 M133.26243307907134 42.90715985279531 C81.88785206405446 41.14382209013217, 28.936272338405246 41.22935085128062, -0.2540938286110759 43.63679911475629 M-0.10639556683599949 43.17959325946868 C1.4335668701585382 27.663437971938404, -1.071708081299439 10.636962020955977, -0.5530675891786814 -1.1255972441285849 M0.6756668658927083 42.11528350692243 C0.14314634134061638 32.96621855618433, 0.5990723722148688 23.736483248695734, 0.7232240112498403 0.7462470410391688" stroke="#000000" stroke-width="4" fill="none"></path></g><g transform="translate(253.5 131.42174979709088) rotate(0 18 20.5)"><path d="M-0.092773562297225 1.7273743506520987 L34.08728032745421 -0.8913134578615427 L35.408075565472245 40.21562091074884 L1.2369827572256327 39.394674038514495" stroke="none" stroke-width="0" fill="#868e9655"></path><path d="M-1.011109972372651 0.7105235997587442 C15.00572288185358 1.564969841428101, 28.079293635860086 0.02876663584262132, 35.37227896414697 -0.722121661528945 M-0.7884221402928233 0.07486592512577772 C7.890569151751697 -0.4373983532190323, 15.815254604257643 0.016826620697975136, 35.63397574145347 -0.35698429960757494 M34.265221869573 0.5248661581426859 C36.17577947321348 13.37109049940482, 34.95635886135511 23.063317419402306, 34.76595661602914 40.49181234277785 M35.851959702558815 -0.053197783417999744 C36.47112467401661 15.483990276698023, 37.16269409173168 29.142229171469808, 36.71777513343841 40.72346620541066 M36.39231321774423 42.35133373178542 C25.456642053276298 40.45503663476556, 16.85493046827614 41.36688869651407, -1.586346948519349 42.44644802249968 M35.801840332336724 41.634682225994766 C23.259241645596923 40.433809364065525, 8.430171591974794 40.720555776581165, 0.9392288299277425 40.51484944205731 M1.7524272557348013 40.416061574593186 C0.8548491887468845 32.346005502250044, -0.3876388974767178 22.784183453954757, 1.1878658290952444 -0.5285637434571981 M0.8334670634940267 41.28862192016095 C0.38134338601492346 25.82411668775603, -0.5770830001030117 9.839976254850626, 0.8410919578745961 0.3498985646292567" stroke="#000000" stroke-width="4" fill="none"></path></g><g transform="translate(299.5 131.42174979709088) rotate(0 17.5 21)"><path d="M0.1306824628263712 0.17316309176385403 L33.75560253299773 -0.3101296667009592 L36.730858677998185 40.27924565039572 L1.4667902532964945 41.432316875085206" stroke="none" stroke-width="0" fill="#868e9655"></path><path d="M-1.605325961485505 1.3105131331831217 C9.243584122043103 1.7053465662989766, 19.031434253789485 -0.10828049792908134, 33.5111524220556 -0.1614349540323019 M0.7951247962191701 -0.5309617044404149 C9.350899293553084 0.7160938199143857, 18.149743439629674 -0.6299036030191928, 35.701472339220345 0.7712865052744746 M36.74360338412225 1.478954965248704 C33.603982050921765 16.078290665708472, 33.449033637549725 32.40119242146609, 35.58228597603738 41.5263493005186 M34.26898938138038 -0.6135713877156377 C34.962945598568766 13.638954725489013, 34.17693589946255 27.619648372568175, 34.098551836796105 42.195713984779985 M34.947564696893096 42.89548372663555 C28.810810819733888 42.21115792184134, 18.944906170479953 43.49963885932227, 0.376554524526 42.663453394547076 M35.79338058549911 41.274242627434404 C22.737954566720873 41.53510621492748, 8.678588919341564 42.548119488405035, -0.7018584040924907 42.59297605138269 M-0.7400850895792246 41.35264092124996 C-0.7090455175004899 29.37180374879388, 1.6893546103872359 19.84707657694815, -0.9874506238847971 -1.2290655430406332 M-0.388751151971519 42.59314318280664 C-0.3568815432302654 29.12689510285852, -0.9033606789819897 17.90047227162866, -0.8738001314923167 0.7938527343794703" stroke="#000000" stroke-width="4" fill="none"></path></g><g transform="translate(344.5 130.42174979709088) rotate(0 19.5 20)"><path d="M0.17316309176385403 -1.2443974670022726 L38.68987033329904 1.7308586779981852 L37.27924565039575 41.466790253296494 L-0.5676831249147654 41.367877239361405" stroke="none" stroke-width="0" fill="#868e9655"></path><path d="M1.3105131331831217 -0.22054811753332615 C12.092279324773699 0.41620833712629973, 20.449113036505878 -1.1758090154547245, 38.8385650459677 -0.6266660932451487 M-0.5309617044404149 -0.05243504326790571 C9.100001693610103 -0.9670239045377821, 15.945979549363258 0.39137366869486867, 39.771286505274475 0.7708961041644216 M40.478954965248704 -1.3648724798113108 C39.40914894863963 10.183555589988828, 39.89428706690669 23.98903894238174, 38.52634930051863 40.40708533488214 M38.38642861228436 0.295543578453362 C39.26304027531296 8.341934070922434, 39.788854719139636 16.763352219946682, 39.195713984780014 39.309759316034615 M39.895483726635575 41.89496842585504 C29.69230165174231 40.10299649861641, 21.652199792303144 40.366329640420155, 0.6634533945471048 41.558808183297515 M38.27424262743443 40.965868887491524 C24.358926992397755 40.443835989227516, 11.273799154907465 39.60756002425216, 0.5929760513827205 39.54697629529983 M-0.6473590787500143 39.32990965805948 C-1.5930667206645013 29.35730811394751, -0.42049345225095747 14.270546032115817, -1.2290655430406332 -0.2228281144052744 M0.5931431828066707 39.614577260799706 C-0.6343099666759371 27.339919039048254, 0.2713281618431211 15.669841696508229, 0.7938527343794703 0.0653412314131856" stroke="#000000" stroke-width="4" fill="none"></path></g><g><g transform="translate(113.5 121.42174979709088) rotate(0 25.216024149758766 -39.14826699580067)"><path d="M0.18145224787294856 -1.1185429248958825 C8.859347821647923 -14.254634566480915, 43.06076996860405 -66.33951218066116, 51.614472350850704 -79.205152085796 M-1.1824240513332187 0.9086180941946806 C7.343345409861455 -12.007053911021599, 41.85405533316855 -64.24167928728585, 50.464024871420115 -77.77543167961761" stroke="#000000" stroke-width="4" fill="none"></path></g></g><g><g transform="translate(165.5 41.42174979709088) rotate(0 11.852313404930783 20.567841794360433)"><path d="M-0.18569699786603455 0.22021600864827628 C3.996158613140385 7.205748232826591, 21.254293482874832 33.967378517612815, 25.44695346094668 40.890513357147576 M-1.7423266510851683 -0.7097745321504771 C2.28948186688746 6.472529857922345, 20.4116786924315 34.56882902758196, 24.733558564316482 41.845458120871335" stroke="#000000" stroke-width="4" fill="none"></path></g></g><g><g transform="translate(190.5 82.42174979709088) rotate(0 27.63465936018156 -0.1399879765044858)"><path d="M0.43296334482729426 0.3736181583255529 C9.51698990004758 0.45279853008687493, 44.63972857532402 -0.49527386762201786, 53.92212053276599 -0.7197628531605005 M-0.7988696284778416 -0.4758362538926304 C8.693749579420933 -0.15071843875572088, 46.60946720841651 0.3882841400988401, 56.06818834884092 0.4397869001515211" stroke="#000000" stroke-width="4" fill="none"></path></g></g><g><g transform="translate(247.5 83.42174979709088) rotate(0 85.59998278953134 21.469233467802397)"><path d="M-0.8533430960029363 -0.524587157741189 C27.972983492786685 6.786180306101839, 143.0970615082731 36.35606585008403, 172.05330867506564 43.463054093346 M0.8995130492560568 1.8144006391055885 C29.65163980834807 8.7951887696671, 142.51939993116383 34.72407720960056, 171.1332502658479 41.583582743573935" stroke="#000000" stroke-width="4" fill="none"></path></g></g><g transform="translate(164 133.42174979709088) rotate(0 14.5 23)"><text x="14.5" y="32" font-family="Virgil, Segoe UI Emoji" font-size="36px" fill="#000000" text-anchor="middle" style="white-space: pre;" direction="ltr">C</text></g><g transform="translate(261 134.42174979709088) rotate(0 11.5 23)"><text x="11.5" y="32" font-family="Virgil, Segoe UI Emoji" font-size="36px" fill="#000000" text-anchor="middle" style="white-space: pre;" direction="ltr">E</text></g><g transform="translate(307 133.42174979709088) rotate(0 10.5 23)"><text x="10.5" y="32" font-family="Virgil, Segoe UI Emoji" font-size="36px" fill="#000000" text-anchor="middle" style="white-space: pre;" direction="ltr">F</text></g><g transform="translate(348 131.42174979709088) rotate(0 14.5 23)"><text x="14.5" y="32" font-family="Virgil, Segoe UI Emoji" font-size="36px" fill="#000000" text-anchor="middle" style="white-space: pre;" direction="ltr">C</text></g><g><g transform="translate(249.5 9.421749797090882) rotate(0 -0.11487401463091373 121.41643975116314)"><path d="M1.0547073449939488 0.5782502029091119 C0.7935986644277968 41.034463927522296, -0.94382284420232 201.69415417648852, -1.2844553742557765 242.25462929941713" stroke="#000000" stroke-width="4.5" fill="none" stroke-dasharray="3 6"></path></g></g><g transform="translate(10 194.42174979709088) rotate(0 111.5 31)"><text x="111.5" y="14.666666666666668" font-family="Virgil, Segoe UI Emoji" font-size="16px" fill="#000000" text-anchor="middle" style="white-space: pre;" direction="ltr">This note has a 'real' gate</text><text x="111.5" y="35.333333333333336" font-family="Virgil, Segoe UI Emoji" font-size="16px" fill="#000000" text-anchor="middle" style="white-space: pre;" direction="ltr">This would actually trigger</text><text x="111.5" y="56" font-family="Virgil, Segoe UI Emoji" font-size="16px" fill="#000000" text-anchor="middle" style="white-space: pre;" direction="ltr">the envelope</text></g><g transform="translate(265.5 188.42174979709088) rotate(0 160 31)"><text x="160" y="14.666666666666668" font-family="Virgil, Segoe UI Emoji" font-size="16px" fill="#000000" text-anchor="middle" style="white-space: pre;" direction="ltr">These notes don't have gates</text><text x="160" y="35.333333333333336" font-family="Virgil, Segoe UI Emoji" font-size="16px" fill="#000000" text-anchor="middle" style="white-space: pre;" direction="ltr">Instead they 'leach' off of</text><text x="160" y="56" font-family="Virgil, Segoe UI Emoji" font-size="16px" fill="#000000" text-anchor="middle" style="white-space: pre;" direction="ltr">the release portion of the prior envelope</text></g></svg>