<svg version="1.1" xmlns="http://www.w3.org/2000/svg" viewBox="0 0 868.3071204568402 799.5222879794479" width="868.3071204568402" height="799.5222879794479">
  <!-- svg-source:excalidraw -->
  
  <defs>
    <style>
      @font-face {
        font-family: "Virgil";
        src: url("https://excalidraw.com/FG_Virgil.woff2");
      }
      @font-face {
        font-family: "Cascadia";
        src: url("https://excalidraw.com/Cascadia.woff2");
      }
    </style>
  </defs>
  <g><g transform="translate(89.22226010019074 809.9549952077163) rotate(25.76698845585773 -48.5280812306944 -49.8275805462568)" fill-rule="evenodd"><path d="M-49.4788249469045 -81.15328785218298 L-24.43920020462417 -70.00514651634404 L-15.774051131430902 -48.76571215898233 L-26.19924203754806 -30.49444224559033 L-49.97315177681478 -18.713684866660586 L-71.88384702328364 -29.306133887397888 L-80.72525382600725 -50.682430403534944 L-68.77332916382471 -71.98856128551671 L-48.773234221959434 -81.58340402878821" stroke="none" stroke-width="0" fill="#fa5252" fill-rule="evenodd"></path><path d="M-48.08332162337931 -78.81235796771944 C-41.941137886883666 -78.65819206342267, -36.583536542947755 -75.34424201445341, -27.165768862529035 -72.20083224200317 M-48.80806115350308 -80.71421657223254 C-40.41961592065632 -76.58987170755438, -32.315729250693195 -73.70390065117806, -26.0498093458026 -71.71900034029642 M-24.829725981517072 -73.07492291354248 C-23.656043146781663 -65.73320578695865, -22.19833760509721 -60.52059574669353, -18.565110346052684 -47.98506116703587 M-25.768585333427723 -70.75469899256387 C-24.541615984989736 -65.28326401354079, -22.668658736854148 -60.4548729502083, -17.281138120900728 -49.36178085696387 M-15.857470175001659 -51.48636436298924 C-19.247851631230272 -44.642535842231666, -18.661724888007555 -42.844394168122165, -25.720689178271527 -30.269372108059766 M-16.57401841760788 -49.98658320796179 C-19.82113698639244 -44.71458857379352, -20.81257370582219 -39.97856502455514, -26.484525510868366 -29.412982890049758 M-26.80307281093144 -30.009704234677198 C-30.546584116964688 -28.242572510140963, -38.45431124401325 -23.098809336913586, -49.3779447598997 -19.4757713586924 M-25.21210581978255 -28.44207448665315 C-32.74096106149027 -26.748070228906826, -39.75070706852888 -23.595119075935376, -48.32011428556027 -18.940944520281008 M-47.02134829002055 -20.207573822223893 C-57.59491205968234 -25.354693896774194, -65.22286015732507 -27.03374020009798, -69.73778556186477 -28.773329737263563 M-48.66330280980649 -18.99419840936487 C-52.96400252978528 -22.397585464717537, -57.25187761077285 -22.80835399378584, -70.83418034754465 -28.846029290596785 M-70.82258008319656 -28.88966894395912 C-75.98762356290023 -38.709388178191325, -78.34765930392385 -44.463846669357196, -78.18276068009436 -49.995784042630966 M-70.54419779024789 -29.098006019036116 C-73.1205319513957 -34.4114322311611, -75.17133270595976 -38.93627096781849, -80.59155428688973 -50.87197766196417 M-81.19869228638709 -48.030351398740585 C-76.38110408291305 -56.1616236144121, -72.70918146404082 -63.20186050991694, -71.00323139030257 -71.59893559836456 M-80.23993385117501 -49.80192527663397 C-76.93836561694587 -55.42877346205015, -76.17981909162344 -60.32461839738127, -70.80804293595025 -71.6570555575625 M-71.54942117530624 -72.72604751013824 C-64.21821028973618 -72.22679336401393, -60.1363710160662 -75.6703196625761, -48.63454442458781 -78.88819510303438 M-71.03663032494256 -71.79890960533777 C-63.75453036328959 -73.87343665240385, -57.04426511079288 -76.60810964122025, -47.99385264596524 -80.05534921307117 M-48.415139643350564 -80 C-48.415139643350564 -80, -48.415139643350564 -80, -48.415139643350564 -80 M-48.415139643350564 -80 C-48.415139643350564 -80, -48.415139643350564 -80, -48.415139643350564 -80" stroke="#000000" stroke-width="1" fill="none"></path></g></g><g transform="translate(285.80712045684015 11.5) rotate(0 3 23)"><text x="3" y="32" font-family="Virgil, Segoe UI Emoji" font-size="36px" fill="#000000" text-anchor="middle" style="white-space: pre;" direction="ltr">1</text></g><g transform="translate(281.30712045684015 102.5) rotate(0 13.5 23)"><text x="13.5" y="32" font-family="Virgil, Segoe UI Emoji" font-size="36px" fill="#000000" text-anchor="middle" style="white-space: pre;" direction="ltr">2</text></g><g transform="translate(285.80712045684015 198.5) rotate(0 13 23)"><text x="13" y="32" font-family="Virgil, Segoe UI Emoji" font-size="36px" fill="#000000" text-anchor="middle" style="white-space: pre;" direction="ltr">3</text></g><g transform="translate(263.30712045684015 310) rotate(0 10.5 23)"><text x="10.5" y="32" font-family="Virgil, Segoe UI Emoji" font-size="36px" fill="#000000" text-anchor="middle" style="white-space: pre;" direction="ltr">4</text></g><g transform="translate(354.80712045684015 300) rotate(0 13 23)"><text x="13" y="32" font-family="Virgil, Segoe UI Emoji" font-size="36px" fill="#000000" text-anchor="middle" style="white-space: pre;" direction="ltr">5</text></g><g><g transform="translate(291.6970324470574 69.5) rotate(0 0.5105352335112912 12.75)"><path d="M0 0 C0.1701784111704304 4.25, 0.8508920558521519 21.25, 1.0210704670225823 25.5 M0 0 C0.1701784111704304 4.25, 0.8508920558521519 21.25, 1.0210704670225823 25.5" stroke="#000000" stroke-width="2" fill="none"></path></g><g transform="translate(291.6970324470574 69.5) rotate(0 0.5105352335112912 12.75)"><path d="M-3.819432551961464 13.693532418718004 C-2.306775835933534 17.383052373431433, -0.7941191199056044 21.072572328144865, 1.0210704670225823 25.5 M-3.819432551961464 13.693532418718004 C-2.786783132292613 16.2122669073309, -1.7541337126237622 18.731001395943792, 1.0210704670225823 25.5" stroke="#000000" stroke-width="2" fill="none"></path></g><g transform="translate(291.6970324470574 69.5) rotate(0 0.5105352335112912 12.75)"><path d="M4.902081102843088 13.344305751241333 C3.6892656619218513 17.14295900509802, 2.4764502210006145 20.941612258954713, 1.0210704670225823 25.5 M4.902081102843088 13.344305751241333 C4.074125131099918 15.937542562048495, 3.2461691593567483 18.530779372855655, 1.0210704670225823 25.5" stroke="#000000" stroke-width="2" fill="none"></path></g></g><g><g transform="translate(298.30864450971103 154) rotate(0 0.33444428332774123 17.25)"><path d="M0 0 C0.11148142777591374 5.75, 0.5574071388795687 28.75, 0.6688885666554825 34.5 M0 0 C0.11148142777591374 5.75, 0.5574071388795687 28.75, 0.6688885666554825 34.5" stroke="#000000" stroke-width="2" fill="none"></path></g><g transform="translate(298.30864450971103 154) rotate(0 0.33444428332774123 17.25)"><path d="M-5.545233730819414 18.40468897316128 C-3.35439756823242 24.079213508993515, -1.1635614056454253 29.753738044825752, 0.6688885666554825 34.5 M-5.545233730819414 18.40468897316128 C-3.7966065648423397 22.93383995524239, -2.0479793988652655 27.4629909373235, 0.6688885666554825 34.5" stroke="#000000" stroke-width="2" fill="none"></path></g><g transform="translate(298.30864450971103 154) rotate(0 0.33444428332774123 17.25)"><path d="M6.2544612139161595 18.17591560972487 C4.285225019554812 23.931095937905578, 2.3159888251934637 29.68627626608628, 0.6688885666554825 34.5 M6.2544612139161595 18.17591560972487 C4.6827052038184265 22.769442427846318, 3.110949193720693 27.362969245967765, 0.6688885666554825 34.5" stroke="#000000" stroke-width="2" fill="none"></path></g></g><g><g transform="translate(298.25485008818043 246.5) rotate(0 -7.007956018730852 26)"><path d="M0 0 C-2.3359853395769505 8.666666666666666, -11.679926697884753 43.333333333333336, -14.015912037461703 52 M0 0 C-2.3359853395769505 8.666666666666666, -11.679926697884753 43.333333333333336, -14.015912037461703 52" stroke="#000000" stroke-width="2" fill="none"></path></g><g transform="translate(298.25485008818043 246.5) rotate(0 -7.007956018730852 26)"><path d="M-16.32311120633552 25.17112973762007 C-15.653221949082361 32.96082219914242, -14.983332691829204 40.75051466066478, -14.015912037461703 52 M-16.32311120633552 25.17112973762007 C-15.813047986456613 31.102312505175654, -15.302984766577707 37.03349527273123, -14.015912037461703 52" stroke="#000000" stroke-width="2" fill="none"></path></g><g transform="translate(298.25485008818043 246.5) rotate(0 -7.007956018730852 26)"><path d="M1.461936246599258 29.964853981512682 C-3.0320166079120687 36.36270111969212, -7.5259694624233955 42.76054825787156, -14.015912037461703 52 M1.461936246599258 29.964853981512682 C-1.9598234519441777 34.83626589961666, -5.3815831504876135 39.707677817720636, -14.015912037461703 52" stroke="#000000" stroke-width="2" fill="none"></path></g></g><g><g transform="translate(313.40999171248507 247.03284227130888) rotate(0 18.130821811386227 21.619763680613744)"><path d="M0 0 C6.043607270462076 7.206587893537915, 30.218036352310378 36.03293946768957, 36.26164362277245 43.23952736122749 M0 0 C6.043607270462076 7.206587893537915, 30.218036352310378 36.03293946768957, 36.26164362277245 43.23952736122749" stroke="#000000" stroke-width="2" fill="none"></path></g><g transform="translate(313.40999171248507 247.03284227130888) rotate(0 18.130821811386227 21.619763680613744)"><path d="M11.829849485118018 29.124701241962043 C17.540045967083607 32.42361699066536, 23.250242449049196 35.722532739368674, 36.26164362277245 43.23952736122749 M11.829849485118018 29.124701241962043 C18.94506601166043 33.235330347103634, 26.060282538202845 37.345959452245225, 36.26164362277245 43.23952736122749" stroke="#000000" stroke-width="2" fill="none"></path></g><g transform="translate(313.40999171248507 247.03284227130888) rotate(0 18.130821811386227 21.619763680613744)"><path d="M26.61863883053921 16.722488692877086 C28.872400946000205 22.920048317972093, 31.1261630614612 29.1176079430671, 36.26164362277245 43.23952736122749 M26.61863883053921 16.722488692877086 C29.426949455483463 24.444986300092296, 32.235260080427715 32.16748390730751, 36.26164362277245 43.23952736122749" stroke="#000000" stroke-width="2" fill="none"></path></g></g><g><g transform="translate(333.1117574830056 576) rotate(0 -3.7766373339521806 28.25)"><path d="M0 0 C-1.2588791113173936 9.416666666666666, -6.294395556586967 47.083333333333336, -7.553274667904361 56.5 M0 0 C-1.2588791113173936 9.416666666666666, -6.294395556586967 47.083333333333336, -7.553274667904361 56.5" stroke="#000000" stroke-width="2" fill="none"></path></g><g transform="translate(333.1117574830056 576) rotate(0 -3.7766373339521806 28.25)"><path d="M-13.66646548275507 28.661997420550684 C-11.795545834566255 37.1817161026011, -9.924626186377441 45.701434784651525, -7.553274667904361 56.5 M-13.66646548275507 28.661997420550684 C-11.459434029852243 38.712288527051186, -9.252402576949418 48.762579633551695, -7.553274667904361 56.5" stroke="#000000" stroke-width="2" fill="none"></path></g><g transform="translate(333.1117574830056 576) rotate(0 -3.7766373339521806 28.25)"><path d="M5.657672615145215 31.24536950504548 C1.6145106083254266 38.974456626942015, -2.4286513984943614 46.703543748838555, -7.553274667904361 56.5 M5.657672615145215 31.24536950504548 C0.8881541984288868 40.362991631022695, -3.881364218287441 49.48061375699991, -7.553274667904361 56.5" stroke="#000000" stroke-width="2" fill="none"></path></g></g><g><g transform="translate(386.80712045684015 465.0083333333333) rotate(0 21.5 29.495833333333337)"><path d="M0 0 C7.166666666666667 9.831944444444446, 35.833333333333336 49.15972222222223, 43 58.991666666666674 M0 0 C7.166666666666667 9.831944444444446, 35.833333333333336 49.15972222222223, 43 58.991666666666674" stroke="#000000" stroke-width="2" fill="none"></path></g><g transform="translate(386.80712045684015 465.0083333333333) rotate(0 21.5 29.495833333333337)"><path d="M18.102866089234976 42.25450074679139 C25.16521240335645 47.00218224566311, 32.22755871747792 51.74986374453482, 43 58.991666666666674 M18.102866089234976 42.25450074679139 C23.516909924836757 45.89410642585169, 28.93095376043854 49.53371210491198, 43 58.991666666666674" stroke="#000000" stroke-width="2" fill="none"></path></g><g transform="translate(386.80712045684015 465.0083333333333) rotate(0 21.5 29.495833333333337)"><path d="M34.68613179263302 30.166684525639543 C37.04445209973481 38.34320826158168, 39.40277240683661 46.51973199752382, 43 58.991666666666674 M34.68613179263302 30.166684525639543 C36.494036553053604 36.43486452705257, 38.30194131347419 42.7030445284656, 43 58.991666666666674" stroke="#000000" stroke-width="2" fill="none"></path></g></g><g><g transform="translate(366.11113475542356 711.3125057099728) rotate(25.76698845585773 -47.78957157988657 -49.6418428139246)" fill-rule="evenodd"><path d="M-48.9722143745664 -78.55435051955283 L-27.135216814292903 -69.42291183569142 L-18.72378134888772 -51.193039017026 L-27.694006663574214 -28.27770515404904 L-49.85700598719152 -20.240273962253085 L-69.86608036879221 -29.691954931842925 L-80.69289023242891 -48.45940478355127 L-69.10362693194071 -71.79212601282308 L-46.64618602755102 -78.84001174010336" stroke="none" stroke-width="0" fill="#fa5252" fill-rule="evenodd"></path><path d="M-47.66692136960658 -78.7557081039995 C-41.55817322299434 -76.61461462316488, -31.74020138427047 -75.44385074116919, -24.572853029532666 -69.56065767430374 M-47.42573899111333 -80.64111585635692 C-39.98587396097102 -76.42724730472905, -32.680929727448266 -74.27896604993009, -26.862388649782474 -71.73458275277773 M-25.918038786216016 -71.02231853627273 C-22.72281256903116 -64.11745489777752, -20.063151974982055 -62.763772228357496, -15.092813333246745 -48.735956011567886 M-25.68183449824744 -71.20513400514284 C-22.82879399928627 -64.3893487541383, -19.474133613146925 -57.398509388476306, -15.8708866524807 -49.11314875375914 M-16.477046331141032 -51.04699736670094 C-20.501072343487678 -42.16934377928196, -21.95317119386587 -33.03914338057636, -26.78423315362477 -28.600606384354474 M-17.602083294402696 -49.70625097047972 C-20.32897923607553 -43.13750361623612, -22.231545740053015 -38.44317448336951, -25.55447671731406 -29.02766923014337 M-24.322259486479993 -30.669719638901594 C-28.942104424367784 -25.184226602403655, -33.46505097868012 -23.79854941851139, -48.92184876638087 -19.266068211281052 M-26.956457355818088 -28.03507045809442 C-30.597280729431024 -25.878152881767345, -36.287340345645575 -24.372785485348984, -48.261778176637314 -18.998630700157335 M-47.83778952794703 -18.642569771492234 C-55.95757974654474 -23.204358287967256, -62.02695764695635 -24.72126856447474, -69.92336551744262 -26.90336543567741 M-48.163888514848374 -19.766766486213854 C-54.86220048069075 -23.100550387467344, -59.96200155180766 -23.78089141764299, -70.38379349551866 -28.222295144240203 M-70.05071680146972 -30.277196707802656 C-71.82930445882121 -34.592627888345845, -73.88106003611652 -38.06115954977548, -79.07562937773764 -49.66068798140126 M-70.93569173656175 -28.90228853527719 C-73.58610933261882 -33.41917794649526, -75.92434762476019 -38.31260021724853, -80.48632982652634 -49.582051460859056 M-80.35726227797568 -51.36241537169057 C-78.59917588381921 -56.28505999210258, -74.48349811137635 -65.76306565733535, -70.26079849798003 -69.62079029702255 M-80.40798667352647 -49.87971300375151 C-78.20678511929083 -54.043359931142874, -75.85637909698222 -59.007176852570666, -70.44242056451509 -70.69956401069322 M-70.24895910817901 -70.12160521172592 C-62.71454677495066 -73.58963334122193, -53.88083298592658 -79.23019920610723, -47.1935164852682 -79.02853620611131 M-70.27411922059724 -70.62539175231615 C-63.163168372689455 -74.37482776981619, -54.528223451384 -77.42903960570655, -49.07574862322392 -80.2560674669221 M-48.415139643350564 -80 C-48.415139643350564 -80, -48.415139643350564 -80, -48.415139643350564 -80 M-48.415139643350564 -80 C-48.415139643350564 -80, -48.415139643350564 -80, -48.415139643350564 -80" stroke="#000000" stroke-width="1" fill="none"></path></g></g><g transform="translate(288.30712045684015 645) rotate(0 27 13)"><text x="27" y="18" font-family="Virgil, Segoe UI Emoji" font-size="20px" fill="#000000" text-anchor="middle" style="white-space: pre;" direction="ltr">STOP</text></g><g transform="translate(245.80712045684015 418.25) rotate(0 13 23)"><text x="13" y="32" font-family="Virgil, Segoe UI Emoji" font-size="36px" fill="#000000" text-anchor="middle" style="white-space: pre;" direction="ltr">3</text></g><g><g transform="translate(268.6773782906922 362.75) rotate(0 -2.5877798210163974 22.75)"><path d="M0 0 C-0.8625932736721325 7.583333333333333, -4.312966368360662 37.916666666666664, -5.175559642032795 45.5 M0 0 C-0.8625932736721325 7.583333333333333, -4.312966368360662 37.916666666666664, -5.175559642032795 45.5" stroke="#000000" stroke-width="2" fill="none"></path></g><g transform="translate(268.6773782906922 362.75) rotate(0 -2.5877798210163974 22.75)"><path d="M-10.52480030066397 23.23692005184128 C-8.596990083407745 31.26030051471153, -6.66917986615152 39.28368097758178, -5.175559642032795 45.5 M-10.52480030066397 23.23692005184128 C-8.91790427122094 29.924683241957936, -7.311008241777914 36.61244643207459, -5.175559642032795 45.5" stroke="#000000" stroke-width="2" fill="none"></path></g><g transform="translate(268.6773782906922 362.75) rotate(0 -2.5877798210163974 22.75)"><path d="M5.037116220653957 25.007065702399885 C1.3565749756370296 32.39250424249043, -2.3239662693798975 39.77794278258098, -5.175559642032795 45.5 M5.037116220653957 25.007065702399885 C1.96925867955403 31.163082388864872, -1.0985988615458968 37.31909907532986, -5.175559642032795 45.5" stroke="#000000" stroke-width="2" fill="none"></path></g></g><g transform="translate(153.5056848290177 423.48357886434565) rotate(0 13 23)"><text x="13" y="32" font-family="Virgil, Segoe UI Emoji" font-size="36px" fill="#000000" text-anchor="middle" style="white-space: pre;" direction="ltr">5</text></g><g><g transform="translate(252.1085560846626 338.51642113565435) rotate(0 -31.869178188613773 36.6197636806138)"><path d="M0 0 C-10.62305939620459 12.206587893537934, -53.11529698102296 61.032939467689665, -63.73835637722755 73.2395273612276 M0 0 C-10.62305939620459 12.206587893537934, -53.11529698102296 61.032939467689665, -63.73835637722755 73.2395273612276" stroke="#000000" stroke-width="2" fill="none"></path></g><g transform="translate(252.1085560846626 338.51642113565435) rotate(0 -31.869178188613773 36.6197636806138)"><path d="M-52.971599610763086 45.23815331044588 C-56.60910892941776 54.69831492216774, -60.24661824807244 64.1584765338896, -63.73835637722755 73.2395273612276 M-52.971599610763086 45.23815331044588 C-55.39806537335364 51.5487236069108, -57.824531135944184 57.859293903375715, -63.73835637722755 73.2395273612276" stroke="#000000" stroke-width="2" fill="none"></path></g><g transform="translate(252.1085560846626 338.51642113565435) rotate(0 -31.869178188613773 36.6197636806138)"><path d="M-37.49160589182312 58.70996821592238 C-46.35897436181909 63.61872652943884, -55.22634283181505 68.52748484295529, -63.73835637722755 73.2395273612276 M-37.49160589182312 58.70996821592238 C-43.40674290229762 61.98444339691921, -49.32187991277213 65.25891857791603, -63.73835637722755 73.2395273612276" stroke="#000000" stroke-width="2" fill="none"></path></g></g><g transform="translate(349.80712045684015 409.75) rotate(0 13 23)"><text x="13" y="32" font-family="Virgil, Segoe UI Emoji" font-size="36px" fill="#000000" text-anchor="middle" style="white-space: pre;" direction="ltr">3</text></g><g><g transform="translate(372.6773782906922 354.25) rotate(0 -2.5877798210163974 22.75)"><path d="M0 0 C-0.8625932736721325 7.583333333333333, -4.312966368360662 37.916666666666664, -5.175559642032795 45.5 M0 0 C-0.8625932736721325 7.583333333333333, -4.312966368360662 37.916666666666664, -5.175559642032795 45.5" stroke="#000000" stroke-width="2" fill="none"></path></g><g transform="translate(372.6773782906922 354.25) rotate(0 -2.5877798210163974 22.75)"><path d="M-10.52480030066397 23.23692005184128 C-9.1894682980225 28.794457098557217, -7.854136295381032 34.35199414527315, -5.175559642032795 45.5 M-10.52480030066397 23.23692005184128 C-9.08136615475188 29.244368929373408, -7.6379320088397895 35.251817806905535, -5.175559642032795 45.5" stroke="#000000" stroke-width="2" fill="none"></path></g><g transform="translate(372.6773782906922 354.25) rotate(0 -2.5877798210163974 22.75)"><path d="M5.037116220653957 25.007065702399885 C2.4877239269934646 30.122720940580333, -0.06166836666702746 35.23837617876078, -5.175559642032795 45.5 M5.037116220653957 25.007065702399885 C2.2813372228351434 30.536860116745476, -0.4744417749836698 36.06665453109107, -5.175559642032795 45.5" stroke="#000000" stroke-width="2" fill="none"></path></g></g><g transform="translate(329.33325564117 530.75) rotate(0 10.5 23)"><text x="10.5" y="32" font-family="Virgil, Segoe UI Emoji" font-size="36px" fill="#000000" text-anchor="middle" style="white-space: pre;" direction="ltr">4</text></g><g><g transform="translate(364.2809852725103 467.25) rotate(0 -7.007956018730852 26)"><path d="M0 0 C-2.3359853395769505 8.666666666666666, -11.679926697884753 43.333333333333336, -14.015912037461703 52 M0 0 C-2.3359853395769505 8.666666666666666, -11.679926697884753 43.333333333333336, -14.015912037461703 52" stroke="#000000" stroke-width="2" fill="none"></path></g><g transform="translate(364.2809852725103 467.25) rotate(0 -7.007956018730852 26)"><path d="M-16.32311120633552 25.17112973762007 C-15.784172276081046 31.438088756247325, -15.245233345826573 37.705047774874586, -14.015912037461703 52 M-16.32311120633552 25.17112973762007 C-15.777161464486388 31.519612777772895, -15.231211722637259 37.86809581792572, -14.015912037461703 52" stroke="#000000" stroke-width="2" fill="none"></path></g><g transform="translate(364.2809852725103 467.25) rotate(0 -7.007956018730852 26)"><path d="M1.461936246599258 29.964853981512682 C-2.153536188285731 35.11204637973175, -5.76900862317072 40.25923877795081, -14.015912037461703 52 M1.461936246599258 29.964853981512682 C-2.2005682259503447 35.17900386622902, -5.8630726984999475 40.39315375094535, -14.015912037461703 52" stroke="#000000" stroke-width="2" fill="none"></path></g></g><g transform="translate(431.80712045684015 531) rotate(0 13 23)"><text x="13" y="32" font-family="Virgil, Segoe UI Emoji" font-size="36px" fill="#000000" text-anchor="middle" style="white-space: pre;" direction="ltr">5</text></g><g><g transform="translate(376.80712045684015 508) rotate(0 26 -25)"><path d="M0 0 C8.666666666666666 -8.333333333333334, 43.333333333333336 -41.666666666666664, 52 -50" stroke="#fa5252" stroke-width="4.5" fill="none" stroke-dasharray="12 8"></path></g></g><g transform="translate(446.80712045684015 469) rotate(0 71 13)"><text x="71" y="18" font-family="Virgil, Segoe UI Emoji" font-size="20px" fill="#000000" text-anchor="middle" style="white-space: pre;" direction="ltr">The call to 5</text></g><g><g transform="translate(623.8071204568402 468) rotate(0 -91.84375 -65)"><path d="M-19.298920968212386 11.000000000000028 C-17.653786332264104 10.820330969267168, -12.120151647710788 10.640661938534308, -9.428113152522688 9.921985815602865 C-6.736074657334587 9.203309692671422, -5.240497715563421 8.8439716312057, -3.1466899970837865 6.687943262411375 C-1.052882278604152 4.531914893617048, 1.9382716049381852 0.7588652482269764, 3.134733158355118 -3.0141843971630955 C4.331194711772051 -6.787234042553168, 4.032079323417811 -12.356973995271844, 4.032079323417811 -15.950354609929054 C4.032079323417811 -19.543735224586264, 5.078983182657635 -20.801418439716286, 3.134733158355118 -24.57446808510636 C1.1904831340526016 -28.347517730496435, -0.005978419364335963 -30.683215130023623, -7.633420822397287 -38.58865248226949 C-15.260863225430239 -46.49408983451535, -33.95557499756982 -64.4609929078014, -42.62992125984259 -72.00709219858155 C-51.30426752211536 -79.5531914893617, -43.97594050743664 -76.85815602836878, -59.67949839603389 -83.86524822695034 C-75.38305628463115 -90.8723404255319, -115.46451832409842 -104.52718676122932, -136.8512685914261 -114.04964539007092 C-158.23801885875378 -123.57210401891253, -179.47521143190434 -136.50827423167848, -188 -141 M-19.298920968212386 11.000000000000028 C-17.653786332264104 10.820330969267168, -12.120151647710788 10.640661938534308, -9.428113152522688 9.921985815602865 C-6.736074657334587 9.203309692671422, -5.240497715563421 8.8439716312057, -3.1466899970837865 6.687943262411375 C-1.052882278604152 4.531914893617048, 1.9382716049381852 0.7588652482269764, 3.134733158355118 -3.0141843971630955 C4.331194711772051 -6.787234042553168, 4.032079323417811 -12.356973995271844, 4.032079323417811 -15.950354609929054 C4.032079323417811 -19.543735224586264, 5.078983182657635 -20.801418439716286, 3.134733158355118 -24.57446808510636 C1.1904831340526016 -28.347517730496435, -0.005978419364335963 -30.683215130023623, -7.633420822397287 -38.58865248226949 C-15.260863225430239 -46.49408983451535, -33.95557499756982 -64.4609929078014, -42.62992125984259 -72.00709219858155 C-51.30426752211536 -79.5531914893617, -43.97594050743664 -76.85815602836878, -59.67949839603389 -83.86524822695034 C-75.38305628463115 -90.8723404255319, -115.46451832409842 -104.52718676122932, -136.8512685914261 -114.04964539007092 C-158.23801885875378 -123.57210401891253, -179.47521143190434 -136.50827423167848, -188 -141" stroke="#000000" stroke-width="4" fill="none"></path></g></g><g><g transform="translate(439.80712045684015 327) rotate(0 -26 -1.5)"><path d="M0 0 C-8.666666666666666 -0.5, -43.333333333333336 -2.5, -52 -3 M0 0 C-8.666666666666666 -0.5, -43.333333333333336 -2.5, -52 -3" stroke="#000000" stroke-width="4" fill="none"></path></g><g transform="translate(439.80712045684015 327) rotate(0 -26 -1.5)"><path d="M-27.054961644577872 -10.482984795288527 C-32.48485827806472 -8.854130456824919, -37.91475491155157 -7.225276118361309, -52 -3 M-27.054961644577872 -10.482984795288527 C-35.71806067664193 -7.88423800591254, -44.381159708705994 -5.285491216536553, -52 -3" stroke="#000000" stroke-width="4" fill="none"></path></g><g transform="translate(439.80712045684015 327) rotate(0 -26 -1.5)"><path d="M-28.08102207455488 7.30206265764625 C-33.2875716040965 5.059567194392538, -38.49412113363812 2.8170717311388263, -52 -3 M-28.08102207455488 7.30206265764625 C-36.38778318518051 3.724285475422782, -44.69454429580614 0.14650829319931447, -52 -3" stroke="#000000" stroke-width="4" fill="none"></path></g></g><g transform="translate(457.30712045684015 499) rotate(0 129.5 13)"><text x="129.5" y="18" font-family="Virgil, Segoe UI Emoji" font-size="20px" fill="#000000" text-anchor="middle" style="white-space: pre;" direction="ltr">was limited to 3 sub calls</text></g><g transform="translate(411.30712045684015 530) rotate(0 223.5 52.5)"><text x="223.5" y="18.25" font-family="Virgil, Segoe UI Emoji" font-size="20px" fill="#000000" text-anchor="middle" style="white-space: pre;" direction="ltr">because there's another branch</text><text x="223.5" y="44.5" font-family="Virgil, Segoe UI Emoji" font-size="20px" fill="#000000" text-anchor="middle" style="white-space: pre;" direction="ltr"> a decision has to be made</text><text x="223.5" y="70.75" font-family="Virgil, Segoe UI Emoji" font-size="20px" fill="#000000" text-anchor="middle" style="white-space: pre;" direction="ltr">this path isn't taken because '4' is the lower</text><text x="223.5" y="97" font-family="Virgil, Segoe UI Emoji" font-size="20px" fill="#000000" text-anchor="middle" style="white-space: pre;" direction="ltr">number  </text></g><g><g transform="translate(67.08081802459594 686.8928044425527) rotate(10.975655172812536 -3.922231764847197 24.75)"><path d="M0 0 C-1.307410588282399 8.25, -6.5370529414119956 41.25, -7.844463529694394 49.5 M0 0 C-1.307410588282399 8.25, -6.5370529414119956 41.25, -7.844463529694394 49.5" stroke="#000000" stroke-width="2" fill="none"></path></g><g transform="translate(67.08081802459594 686.8928044425527) rotate(10.975655172812536 -3.922231764847197 24.75)"><path d="M-12.623769830565694 24.901125365179233 C-11.218371608191744 32.13464682369597, -9.812973385817791 39.3681682822127, -7.844463529694394 49.5 M-12.623769830565694 24.901125365179233 C-11.311444824679402 31.655603163359302, -9.999119818793112 38.41008096153937, -7.844463529694394 49.5" stroke="#000000" stroke-width="2" fill="none"></path></g><g transform="translate(67.08081802459594 686.8928044425527) rotate(10.975655172812536 -3.922231764847197 24.75)"><path d="M4.306227264054909 27.58408990591829 C0.7332067947375043 34.02866138741438, -2.8398136745799007 40.47323286891047, -7.844463529694394 49.5 M4.306227264054909 27.58408990591829 C0.9698319038072181 33.60186634305016, -2.366563456440473 39.61964278018204, -7.844463529694394 49.5" stroke="#000000" stroke-width="2" fill="none"></path></g></g><g><g transform="translate(53.557320062569715 556.9079167791048) rotate(80.05604803759823 21.5 29.495833333333337)"><path d="M0 0 C7.166666666666667 9.831944444444446, 35.833333333333336 49.15972222222223, 43 58.991666666666674 M0 0 C7.166666666666667 9.831944444444446, 35.833333333333336 49.15972222222223, 43 58.991666666666674" stroke="#000000" stroke-width="2" fill="none"></path></g><g transform="translate(53.557320062569715 556.9079167791048) rotate(80.05604803759823 21.5 29.495833333333337)"><path d="M18.102866089234976 42.25450074679139 C26.167459691760953 47.67594570851367, 34.23205329428693 53.09739067023595, 43 58.991666666666674 M18.102866089234976 42.25450074679139 C25.181274141498942 47.012979792770984, 32.259682193762906 51.77145883875057, 43 58.991666666666674" stroke="#000000" stroke-width="2" fill="none"></path></g><g transform="translate(53.557320062569715 556.9079167791048) rotate(80.05604803759823 21.5 29.495833333333337)"><path d="M34.68613179263302 30.166684525639543 C37.37913125986831 39.503573157103304, 40.0721307271036 48.84046178856707, 43 58.991666666666674 M34.68613179263302 30.166684525639543 C37.04981557548976 38.36180394881101, 39.41349935834649 46.55692337198248, 43 58.991666666666674" stroke="#000000" stroke-width="2" fill="none"></path></g></g><g transform="translate(11.981215100507825 745.1401507129632) rotate(10.975655172812536 27 13)"><text x="27" y="18" font-family="Virgil, Segoe UI Emoji" font-size="20px" fill="#000000" text-anchor="middle" style="white-space: pre;" direction="ltr">STOP</text></g><g transform="translate(115.14709071203652 530.1163493472933) rotate(10.975655172812536 13 23)"><text x="13" y="32" font-family="Virgil, Segoe UI Emoji" font-size="36px" fill="#000000" text-anchor="middle" style="white-space: pre;" direction="ltr">3</text></g><g><g transform="translate(148.4984864084031 477.02264365449) rotate(10.975655172812536 -2.5877798210163974 22.75)"><path d="M0 0 C-0.8625932736721325 7.583333333333333, -4.312966368360662 37.916666666666664, -5.175559642032795 45.5 M0 0 C-0.8625932736721325 7.583333333333333, -4.312966368360662 37.916666666666664, -5.175559642032795 45.5" stroke="#000000" stroke-width="2" fill="none"></path></g><g transform="translate(148.4984864084031 477.02264365449) rotate(10.975655172812536 -2.5877798210163974 22.75)"><path d="M-10.52480030066397 23.23692005184128 C-8.481587581655331 31.740595810191646, -6.438374862646694 40.24427156854201, -5.175559642032795 45.5 M-10.52480030066397 23.23692005184128 C-9.197862419773323 28.759521485157286, -7.870924538882677 34.28212291847329, -5.175559642032795 45.5" stroke="#000000" stroke-width="2" fill="none"></path></g><g transform="translate(148.4984864084031 477.02264365449) rotate(10.975655172812536 -2.5877798210163974 22.75)"><path d="M5.037116220653957 25.007065702399885 C1.136250555901142 32.83461108290244, -2.7646151088516726 40.662156463405, -5.175559642032795 45.5 M5.037116220653957 25.007065702399885 C2.503749836101659 30.09056307061273, -0.029616548450638547 35.17406043882558, -5.175559642032795 45.5" stroke="#000000" stroke-width="2" fill="none"></path></g></g><g transform="translate(72.05604157945652 644.5290003241822) rotate(10.975655172812536 10.5 23)"><text x="10.5" y="32" font-family="Virgil, Segoe UI Emoji" font-size="36px" fill="#000000" text-anchor="middle" style="white-space: pre;" direction="ltr">4</text></g><g><g transform="translate(118.20347500443427 585.4560475077294) rotate(10.975655172812536 -7.007956018730852 26)"><path d="M0 0 C-2.3359853395769505 8.666666666666666, -11.679926697884753 43.333333333333336, -14.015912037461703 52 M0 0 C-2.3359853395769505 8.666666666666666, -11.679926697884753 43.333333333333336, -14.015912037461703 52" stroke="#000000" stroke-width="2" fill="none"></path></g><g transform="translate(118.20347500443427 585.4560475077294) rotate(10.975655172812536 -7.007956018730852 26)"><path d="M-16.32311120633552 25.17112973762007 C-15.572320908097991 33.901566094139845, -14.821530609860464 42.63200245065961, -14.015912037461703 52 M-16.32311120633552 25.17112973762007 C-15.41306972663939 35.753391174576656, -14.503028246943263 46.33565261153325, -14.015912037461703 52" stroke="#000000" stroke-width="2" fill="none"></path></g><g transform="translate(118.20347500443427 585.4560475077294) rotate(10.975655172812536 -7.007956018730852 26)"><path d="M1.461936246599258 29.964853981512682 C-3.574741334616048 37.1353549396085, -8.611418915831354 44.30585589770431, -14.015912037461703 52 M1.461936246599258 29.964853981512682 C-4.643078069011119 38.65629993837501, -10.748092384621495 47.347745895237324, -14.015912037461703 52" stroke="#000000" stroke-width="2" fill="none"></path></g></g><g transform="translate(20.56214423696008 603.7605996097172) rotate(10.975655172812536 13 23)"><text x="13" y="32" font-family="Virgil, Segoe UI Emoji" font-size="36px" fill="#000000" text-anchor="middle" style="white-space: pre;" direction="ltr">5</text></g><g><g transform="translate(48.848225136535916 600.0628603369742) rotate(110.30785906503976 26 -25)"><path d="M0 0 C8.666666666666666 -8.333333333333334, 43.333333333333336 -41.666666666666664, 52 -50" stroke="#fa5252" stroke-width="4.5" fill="none" stroke-dasharray="12 8"></path></g></g><g transform="translate(264.80712045684015 10) rotate(0 25 24)"><path d="M25 0 C30.08873524335177 -0.30641777724759106, 36.96632460461262 2.3095260758122484, 41.06969024216349 5.614933365144527 C45.173055879714354 8.920340654476805, 48.690036349897284 14.76826596351776, 49.6201938253052 19.83244373599367 C50.55035130071312 24.896621508469583, 49.328916801638215 31.546636806188644, 46.65063509461097 36 C43.97235338758372 40.453363193811356, 38.5840266961005 44.79385241571816, 33.55050358314172 46.5526228988618 C28.516980470182936 48.311393382005434, 21.483019529817064 48.311393382005434, 16.44949641685828 46.5526228988618 C11.415973303899499 44.79385241571816, 6.027646612416278 40.453363193811356, 3.349364905389031 36 C0.6710831983617838 31.546636806188644, -0.5503513007131146 24.896621508469583, 0.3798061746947994 19.83244373599367 C1.3099636501027132 14.76826596351776, 4.826944120285648 8.920340654476808, 8.930309757836515 5.61493336514453 C13.03367539538738 2.309526075812252, 22.321718292972747 0.8558222275240883, 24.999999999999996 0 C27.678281707027246 -0.8558222275240883, 25 0.08000000000000068, 25 0.4800000000000004 M25 0 C30.08873524335177 -0.30641777724759106, 36.96632460461262 2.3095260758122484, 41.06969024216349 5.614933365144527 C45.173055879714354 8.920340654476805, 48.690036349897284 14.76826596351776, 49.6201938253052 19.83244373599367 C50.55035130071312 24.896621508469583, 49.328916801638215 31.546636806188644, 46.65063509461097 36 C43.97235338758372 40.453363193811356, 38.5840266961005 44.79385241571816, 33.55050358314172 46.5526228988618 C28.516980470182936 48.311393382005434, 21.483019529817064 48.311393382005434, 16.44949641685828 46.5526228988618 C11.415973303899499 44.79385241571816, 6.027646612416278 40.453363193811356, 3.349364905389031 36 C0.6710831983617838 31.546636806188644, -0.5503513007131146 24.896621508469583, 0.3798061746947994 19.83244373599367 C1.3099636501027132 14.76826596351776, 4.826944120285648 8.920340654476808, 8.930309757836515 5.61493336514453 C13.03367539538738 2.309526075812252, 22.321718292972747 0.8558222275240883, 24.999999999999996 0 C27.678281707027246 -0.8558222275240883, 25 0.08000000000000068, 25 0.4800000000000004" stroke="none" stroke-width="0" fill="#fa525233"></path><path d="M25 0 C30.08873524335177 -0.30641777724759106, 36.96632460461262 2.3095260758122484, 41.06969024216349 5.614933365144527 C45.173055879714354 8.920340654476805, 48.690036349897284 14.76826596351776, 49.6201938253052 19.83244373599367 C50.55035130071312 24.896621508469583, 49.328916801638215 31.546636806188644, 46.65063509461097 36 C43.97235338758372 40.453363193811356, 38.5840266961005 44.79385241571816, 33.55050358314172 46.5526228988618 C28.516980470182936 48.311393382005434, 21.483019529817064 48.311393382005434, 16.44949641685828 46.5526228988618 C11.415973303899499 44.79385241571816, 6.027646612416278 40.453363193811356, 3.349364905389031 36 C0.6710831983617838 31.546636806188644, -0.5503513007131146 24.896621508469583, 0.3798061746947994 19.83244373599367 C1.3099636501027132 14.76826596351776, 4.826944120285648 8.920340654476808, 8.930309757836515 5.61493336514453 C13.03367539538738 2.309526075812252, 22.321718292972747 0.8558222275240883, 24.999999999999996 0 C27.678281707027246 -0.8558222275240883, 25 0.08000000000000068, 25 0.4800000000000004 M25 0 C30.08873524335177 -0.30641777724759106, 36.96632460461262 2.3095260758122484, 41.06969024216349 5.614933365144527 C45.173055879714354 8.920340654476805, 48.690036349897284 14.76826596351776, 49.6201938253052 19.83244373599367 C50.55035130071312 24.896621508469583, 49.328916801638215 31.546636806188644, 46.65063509461097 36 C43.97235338758372 40.453363193811356, 38.5840266961005 44.79385241571816, 33.55050358314172 46.5526228988618 C28.516980470182936 48.311393382005434, 21.483019529817064 48.311393382005434, 16.44949641685828 46.5526228988618 C11.415973303899499 44.79385241571816, 6.027646612416278 40.453363193811356, 3.349364905389031 36 C0.6710831983617838 31.546636806188644, -0.5503513007131146 24.896621508469583, 0.3798061746947994 19.83244373599367 C1.3099636501027132 14.76826596351776, 4.826944120285648 8.920340654476808, 8.930309757836515 5.61493336514453 C13.03367539538738 2.309526075812252, 22.321718292972747 0.8558222275240883, 24.999999999999996 0 C27.678281707027246 -0.8558222275240883, 25 0.08000000000000068, 25 0.4800000000000004" stroke="#000000" stroke-width="4" fill="none"></path></g><g transform="translate(268.80712045684015 102) rotate(0 25 24)"><path d="M25 0 C30.08873524335177 -0.30641777724759106, 36.96632460461262 2.3095260758122484, 41.06969024216349 5.614933365144527 C45.173055879714354 8.920340654476805, 48.690036349897284 14.76826596351776, 49.6201938253052 19.83244373599367 C50.55035130071312 24.896621508469583, 49.328916801638215 31.546636806188644, 46.65063509461097 36 C43.97235338758372 40.453363193811356, 38.5840266961005 44.79385241571816, 33.55050358314172 46.5526228988618 C28.516980470182936 48.311393382005434, 21.483019529817064 48.311393382005434, 16.44949641685828 46.5526228988618 C11.415973303899499 44.79385241571816, 6.027646612416278 40.453363193811356, 3.349364905389031 36 C0.6710831983617838 31.546636806188644, -0.5503513007131146 24.896621508469583, 0.3798061746947994 19.83244373599367 C1.3099636501027132 14.76826596351776, 4.826944120285648 8.920340654476808, 8.930309757836515 5.61493336514453 C13.03367539538738 2.309526075812252, 22.321718292972747 0.8558222275240883, 24.999999999999996 0 C27.678281707027246 -0.8558222275240883, 25 0.08000000000000068, 25 0.4800000000000004 M25 0 C30.08873524335177 -0.30641777724759106, 36.96632460461262 2.3095260758122484, 41.06969024216349 5.614933365144527 C45.173055879714354 8.920340654476805, 48.690036349897284 14.76826596351776, 49.6201938253052 19.83244373599367 C50.55035130071312 24.896621508469583, 49.328916801638215 31.546636806188644, 46.65063509461097 36 C43.97235338758372 40.453363193811356, 38.5840266961005 44.79385241571816, 33.55050358314172 46.5526228988618 C28.516980470182936 48.311393382005434, 21.483019529817064 48.311393382005434, 16.44949641685828 46.5526228988618 C11.415973303899499 44.79385241571816, 6.027646612416278 40.453363193811356, 3.349364905389031 36 C0.6710831983617838 31.546636806188644, -0.5503513007131146 24.896621508469583, 0.3798061746947994 19.83244373599367 C1.3099636501027132 14.76826596351776, 4.826944120285648 8.920340654476808, 8.930309757836515 5.61493336514453 C13.03367539538738 2.309526075812252, 22.321718292972747 0.8558222275240883, 24.999999999999996 0 C27.678281707027246 -0.8558222275240883, 25 0.08000000000000068, 25 0.4800000000000004" stroke="none" stroke-width="0" fill="#fa525233"></path><path d="M25 0 C30.08873524335177 -0.30641777724759106, 36.96632460461262 2.3095260758122484, 41.06969024216349 5.614933365144527 C45.173055879714354 8.920340654476805, 48.690036349897284 14.76826596351776, 49.6201938253052 19.83244373599367 C50.55035130071312 24.896621508469583, 49.328916801638215 31.546636806188644, 46.65063509461097 36 C43.97235338758372 40.453363193811356, 38.5840266961005 44.79385241571816, 33.55050358314172 46.5526228988618 C28.516980470182936 48.311393382005434, 21.483019529817064 48.311393382005434, 16.44949641685828 46.5526228988618 C11.415973303899499 44.79385241571816, 6.027646612416278 40.453363193811356, 3.349364905389031 36 C0.6710831983617838 31.546636806188644, -0.5503513007131146 24.896621508469583, 0.3798061746947994 19.83244373599367 C1.3099636501027132 14.76826596351776, 4.826944120285648 8.920340654476808, 8.930309757836515 5.61493336514453 C13.03367539538738 2.309526075812252, 22.321718292972747 0.8558222275240883, 24.999999999999996 0 C27.678281707027246 -0.8558222275240883, 25 0.08000000000000068, 25 0.4800000000000004 M25 0 C30.08873524335177 -0.30641777724759106, 36.96632460461262 2.3095260758122484, 41.06969024216349 5.614933365144527 C45.173055879714354 8.920340654476805, 48.690036349897284 14.76826596351776, 49.6201938253052 19.83244373599367 C50.55035130071312 24.896621508469583, 49.328916801638215 31.546636806188644, 46.65063509461097 36 C43.97235338758372 40.453363193811356, 38.5840266961005 44.79385241571816, 33.55050358314172 46.5526228988618 C28.516980470182936 48.311393382005434, 21.483019529817064 48.311393382005434, 16.44949641685828 46.5526228988618 C11.415973303899499 44.79385241571816, 6.027646612416278 40.453363193811356, 3.349364905389031 36 C0.6710831983617838 31.546636806188644, -0.5503513007131146 24.896621508469583, 0.3798061746947994 19.83244373599367 C1.3099636501027132 14.76826596351776, 4.826944120285648 8.920340654476808, 8.930309757836515 5.61493336514453 C13.03367539538738 2.309526075812252, 22.321718292972747 0.8558222275240883, 24.999999999999996 0 C27.678281707027246 -0.8558222275240883, 25 0.08000000000000068, 25 0.4800000000000004" stroke="#000000" stroke-width="4" fill="none"></path></g><g transform="translate(274.80712045684015 197) rotate(0 25 24)"><path d="M25 0 C30.08873524335177 -0.30641777724759106, 36.96632460461262 2.3095260758122484, 41.06969024216349 5.614933365144527 C45.173055879714354 8.920340654476805, 48.690036349897284 14.76826596351776, 49.6201938253052 19.83244373599367 C50.55035130071312 24.896621508469583, 49.328916801638215 31.546636806188644, 46.65063509461097 36 C43.97235338758372 40.453363193811356, 38.5840266961005 44.79385241571816, 33.55050358314172 46.5526228988618 C28.516980470182936 48.311393382005434, 21.483019529817064 48.311393382005434, 16.44949641685828 46.5526228988618 C11.415973303899499 44.79385241571816, 6.027646612416278 40.453363193811356, 3.349364905389031 36 C0.6710831983617838 31.546636806188644, -0.5503513007131146 24.896621508469583, 0.3798061746947994 19.83244373599367 C1.3099636501027132 14.76826596351776, 4.826944120285648 8.920340654476808, 8.930309757836515 5.61493336514453 C13.03367539538738 2.309526075812252, 22.321718292972747 0.8558222275240883, 24.999999999999996 0 C27.678281707027246 -0.8558222275240883, 25 0.08000000000000068, 25 0.4800000000000004 M25 0 C30.08873524335177 -0.30641777724759106, 36.96632460461262 2.3095260758122484, 41.06969024216349 5.614933365144527 C45.173055879714354 8.920340654476805, 48.690036349897284 14.76826596351776, 49.6201938253052 19.83244373599367 C50.55035130071312 24.896621508469583, 49.328916801638215 31.546636806188644, 46.65063509461097 36 C43.97235338758372 40.453363193811356, 38.5840266961005 44.79385241571816, 33.55050358314172 46.5526228988618 C28.516980470182936 48.311393382005434, 21.483019529817064 48.311393382005434, 16.44949641685828 46.5526228988618 C11.415973303899499 44.79385241571816, 6.027646612416278 40.453363193811356, 3.349364905389031 36 C0.6710831983617838 31.546636806188644, -0.5503513007131146 24.896621508469583, 0.3798061746947994 19.83244373599367 C1.3099636501027132 14.76826596351776, 4.826944120285648 8.920340654476808, 8.930309757836515 5.61493336514453 C13.03367539538738 2.309526075812252, 22.321718292972747 0.8558222275240883, 24.999999999999996 0 C27.678281707027246 -0.8558222275240883, 25 0.08000000000000068, 25 0.4800000000000004" stroke="none" stroke-width="0" fill="#fa525233"></path><path d="M25 0 C30.08873524335177 -0.30641777724759106, 36.96632460461262 2.3095260758122484, 41.06969024216349 5.614933365144527 C45.173055879714354 8.920340654476805, 48.690036349897284 14.76826596351776, 49.6201938253052 19.83244373599367 C50.55035130071312 24.896621508469583, 49.328916801638215 31.546636806188644, 46.65063509461097 36 C43.97235338758372 40.453363193811356, 38.5840266961005 44.79385241571816, 33.55050358314172 46.5526228988618 C28.516980470182936 48.311393382005434, 21.483019529817064 48.311393382005434, 16.44949641685828 46.5526228988618 C11.415973303899499 44.79385241571816, 6.027646612416278 40.453363193811356, 3.349364905389031 36 C0.6710831983617838 31.546636806188644, -0.5503513007131146 24.896621508469583, 0.3798061746947994 19.83244373599367 C1.3099636501027132 14.76826596351776, 4.826944120285648 8.920340654476808, 8.930309757836515 5.61493336514453 C13.03367539538738 2.309526075812252, 22.321718292972747 0.8558222275240883, 24.999999999999996 0 C27.678281707027246 -0.8558222275240883, 25 0.08000000000000068, 25 0.4800000000000004 M25 0 C30.08873524335177 -0.30641777724759106, 36.96632460461262 2.3095260758122484, 41.06969024216349 5.614933365144527 C45.173055879714354 8.920340654476805, 48.690036349897284 14.76826596351776, 49.6201938253052 19.83244373599367 C50.55035130071312 24.896621508469583, 49.328916801638215 31.546636806188644, 46.65063509461097 36 C43.97235338758372 40.453363193811356, 38.5840266961005 44.79385241571816, 33.55050358314172 46.5526228988618 C28.516980470182936 48.311393382005434, 21.483019529817064 48.311393382005434, 16.44949641685828 46.5526228988618 C11.415973303899499 44.79385241571816, 6.027646612416278 40.453363193811356, 3.349364905389031 36 C0.6710831983617838 31.546636806188644, -0.5503513007131146 24.896621508469583, 0.3798061746947994 19.83244373599367 C1.3099636501027132 14.76826596351776, 4.826944120285648 8.920340654476808, 8.930309757836515 5.61493336514453 C13.03367539538738 2.309526075812252, 22.321718292972747 0.8558222275240883, 24.999999999999996 0 C27.678281707027246 -0.8558222275240883, 25 0.08000000000000068, 25 0.4800000000000004" stroke="#000000" stroke-width="4" fill="none"></path></g><g transform="translate(252.80712045684015 306) rotate(0 25 24)"><path d="M25 0 C30.08873524335177 -0.30641777724759106, 36.96632460461262 2.3095260758122484, 41.06969024216349 5.614933365144527 C45.173055879714354 8.920340654476805, 48.690036349897284 14.76826596351776, 49.6201938253052 19.83244373599367 C50.55035130071312 24.896621508469583, 49.328916801638215 31.546636806188644, 46.65063509461097 36 C43.97235338758372 40.453363193811356, 38.5840266961005 44.79385241571816, 33.55050358314172 46.5526228988618 C28.516980470182936 48.311393382005434, 21.483019529817064 48.311393382005434, 16.44949641685828 46.5526228988618 C11.415973303899499 44.79385241571816, 6.027646612416278 40.453363193811356, 3.349364905389031 36 C0.6710831983617838 31.546636806188644, -0.5503513007131146 24.896621508469583, 0.3798061746947994 19.83244373599367 C1.3099636501027132 14.76826596351776, 4.826944120285648 8.920340654476808, 8.930309757836515 5.61493336514453 C13.03367539538738 2.309526075812252, 22.321718292972747 0.8558222275240883, 24.999999999999996 0 C27.678281707027246 -0.8558222275240883, 25 0.08000000000000068, 25 0.4800000000000004 M25 0 C30.08873524335177 -0.30641777724759106, 36.96632460461262 2.3095260758122484, 41.06969024216349 5.614933365144527 C45.173055879714354 8.920340654476805, 48.690036349897284 14.76826596351776, 49.6201938253052 19.83244373599367 C50.55035130071312 24.896621508469583, 49.328916801638215 31.546636806188644, 46.65063509461097 36 C43.97235338758372 40.453363193811356, 38.5840266961005 44.79385241571816, 33.55050358314172 46.5526228988618 C28.516980470182936 48.311393382005434, 21.483019529817064 48.311393382005434, 16.44949641685828 46.5526228988618 C11.415973303899499 44.79385241571816, 6.027646612416278 40.453363193811356, 3.349364905389031 36 C0.6710831983617838 31.546636806188644, -0.5503513007131146 24.896621508469583, 0.3798061746947994 19.83244373599367 C1.3099636501027132 14.76826596351776, 4.826944120285648 8.920340654476808, 8.930309757836515 5.61493336514453 C13.03367539538738 2.309526075812252, 22.321718292972747 0.8558222275240883, 24.999999999999996 0 C27.678281707027246 -0.8558222275240883, 25 0.08000000000000068, 25 0.4800000000000004" stroke="none" stroke-width="0" fill="#fa525233"></path><path d="M25 0 C30.08873524335177 -0.30641777724759106, 36.96632460461262 2.3095260758122484, 41.06969024216349 5.614933365144527 C45.173055879714354 8.920340654476805, 48.690036349897284 14.76826596351776, 49.6201938253052 19.83244373599367 C50.55035130071312 24.896621508469583, 49.328916801638215 31.546636806188644, 46.65063509461097 36 C43.97235338758372 40.453363193811356, 38.5840266961005 44.79385241571816, 33.55050358314172 46.5526228988618 C28.516980470182936 48.311393382005434, 21.483019529817064 48.311393382005434, 16.44949641685828 46.5526228988618 C11.415973303899499 44.79385241571816, 6.027646612416278 40.453363193811356, 3.349364905389031 36 C0.6710831983617838 31.546636806188644, -0.5503513007131146 24.896621508469583, 0.3798061746947994 19.83244373599367 C1.3099636501027132 14.76826596351776, 4.826944120285648 8.920340654476808, 8.930309757836515 5.61493336514453 C13.03367539538738 2.309526075812252, 22.321718292972747 0.8558222275240883, 24.999999999999996 0 C27.678281707027246 -0.8558222275240883, 25 0.08000000000000068, 25 0.4800000000000004 M25 0 C30.08873524335177 -0.30641777724759106, 36.96632460461262 2.3095260758122484, 41.06969024216349 5.614933365144527 C45.173055879714354 8.920340654476805, 48.690036349897284 14.76826596351776, 49.6201938253052 19.83244373599367 C50.55035130071312 24.896621508469583, 49.328916801638215 31.546636806188644, 46.65063509461097 36 C43.97235338758372 40.453363193811356, 38.5840266961005 44.79385241571816, 33.55050358314172 46.5526228988618 C28.516980470182936 48.311393382005434, 21.483019529817064 48.311393382005434, 16.44949641685828 46.5526228988618 C11.415973303899499 44.79385241571816, 6.027646612416278 40.453363193811356, 3.349364905389031 36 C0.6710831983617838 31.546636806188644, -0.5503513007131146 24.896621508469583, 0.3798061746947994 19.83244373599367 C1.3099636501027132 14.76826596351776, 4.826944120285648 8.920340654476808, 8.930309757836515 5.61493336514453 C13.03367539538738 2.309526075812252, 22.321718292972747 0.8558222275240883, 24.999999999999996 0 C27.678281707027246 -0.8558222275240883, 25 0.08000000000000068, 25 0.4800000000000004" stroke="#000000" stroke-width="4" fill="none"></path></g><g transform="translate(235.80712045684015 417) rotate(0 25 24)"><path d="M25 0 C30.08873524335177 -0.30641777724759106, 36.96632460461262 2.3095260758122484, 41.06969024216349 5.614933365144527 C45.173055879714354 8.920340654476805, 48.690036349897284 14.76826596351776, 49.6201938253052 19.83244373599367 C50.55035130071312 24.896621508469583, 49.328916801638215 31.546636806188644, 46.65063509461097 36 C43.97235338758372 40.453363193811356, 38.5840266961005 44.79385241571816, 33.55050358314172 46.5526228988618 C28.516980470182936 48.311393382005434, 21.483019529817064 48.311393382005434, 16.44949641685828 46.5526228988618 C11.415973303899499 44.79385241571816, 6.027646612416278 40.453363193811356, 3.349364905389031 36 C0.6710831983617838 31.546636806188644, -0.5503513007131146 24.896621508469583, 0.3798061746947994 19.83244373599367 C1.3099636501027132 14.76826596351776, 4.826944120285648 8.920340654476808, 8.930309757836515 5.61493336514453 C13.03367539538738 2.309526075812252, 22.321718292972747 0.8558222275240883, 24.999999999999996 0 C27.678281707027246 -0.8558222275240883, 25 0.08000000000000068, 25 0.4800000000000004 M25 0 C30.08873524335177 -0.30641777724759106, 36.96632460461262 2.3095260758122484, 41.06969024216349 5.614933365144527 C45.173055879714354 8.920340654476805, 48.690036349897284 14.76826596351776, 49.6201938253052 19.83244373599367 C50.55035130071312 24.896621508469583, 49.328916801638215 31.546636806188644, 46.65063509461097 36 C43.97235338758372 40.453363193811356, 38.5840266961005 44.79385241571816, 33.55050358314172 46.5526228988618 C28.516980470182936 48.311393382005434, 21.483019529817064 48.311393382005434, 16.44949641685828 46.5526228988618 C11.415973303899499 44.79385241571816, 6.027646612416278 40.453363193811356, 3.349364905389031 36 C0.6710831983617838 31.546636806188644, -0.5503513007131146 24.896621508469583, 0.3798061746947994 19.83244373599367 C1.3099636501027132 14.76826596351776, 4.826944120285648 8.920340654476808, 8.930309757836515 5.61493336514453 C13.03367539538738 2.309526075812252, 22.321718292972747 0.8558222275240883, 24.999999999999996 0 C27.678281707027246 -0.8558222275240883, 25 0.08000000000000068, 25 0.4800000000000004" stroke="none" stroke-width="0" fill="#fa525233"></path><path d="M25 0 C30.08873524335177 -0.30641777724759106, 36.96632460461262 2.3095260758122484, 41.06969024216349 5.614933365144527 C45.173055879714354 8.920340654476805, 48.690036349897284 14.76826596351776, 49.6201938253052 19.83244373599367 C50.55035130071312 24.896621508469583, 49.328916801638215 31.546636806188644, 46.65063509461097 36 C43.97235338758372 40.453363193811356, 38.5840266961005 44.79385241571816, 33.55050358314172 46.5526228988618 C28.516980470182936 48.311393382005434, 21.483019529817064 48.311393382005434, 16.44949641685828 46.5526228988618 C11.415973303899499 44.79385241571816, 6.027646612416278 40.453363193811356, 3.349364905389031 36 C0.6710831983617838 31.546636806188644, -0.5503513007131146 24.896621508469583, 0.3798061746947994 19.83244373599367 C1.3099636501027132 14.76826596351776, 4.826944120285648 8.920340654476808, 8.930309757836515 5.61493336514453 C13.03367539538738 2.309526075812252, 22.321718292972747 0.8558222275240883, 24.999999999999996 0 C27.678281707027246 -0.8558222275240883, 25 0.08000000000000068, 25 0.4800000000000004 M25 0 C30.08873524335177 -0.30641777724759106, 36.96632460461262 2.3095260758122484, 41.06969024216349 5.614933365144527 C45.173055879714354 8.920340654476805, 48.690036349897284 14.76826596351776, 49.6201938253052 19.83244373599367 C50.55035130071312 24.896621508469583, 49.328916801638215 31.546636806188644, 46.65063509461097 36 C43.97235338758372 40.453363193811356, 38.5840266961005 44.79385241571816, 33.55050358314172 46.5526228988618 C28.516980470182936 48.311393382005434, 21.483019529817064 48.311393382005434, 16.44949641685828 46.5526228988618 C11.415973303899499 44.79385241571816, 6.027646612416278 40.453363193811356, 3.349364905389031 36 C0.6710831983617838 31.546636806188644, -0.5503513007131146 24.896621508469583, 0.3798061746947994 19.83244373599367 C1.3099636501027132 14.76826596351776, 4.826944120285648 8.920340654476808, 8.930309757836515 5.61493336514453 C13.03367539538738 2.309526075812252, 22.321718292972747 0.8558222275240883, 24.999999999999996 0 C27.678281707027246 -0.8558222275240883, 25 0.08000000000000068, 25 0.4800000000000004" stroke="#000000" stroke-width="4" fill="none"></path></g><g><g transform="translate(253.80712045684015 467) rotate(0 -2 28.5)"><path d="M0 0 C-0.6666666666666666 9.5, -3.3333333333333335 47.5, -4 57 M0 0 C-0.6666666666666666 9.5, -3.3333333333333335 47.5, -4 57" stroke="#000000" stroke-width="4" fill="none"></path></g><g transform="translate(253.80712045684015 467) rotate(0 -2 28.5)"><path d="M-11.868188843209742 29.53472002095027 C-9.397588986901221 38.158777999461186, -6.9269891305927 46.782835977972105, -4 57 M-11.868188843209742 29.53472002095027 C-10.28003612716441 35.07844296213471, -8.691883411119079 40.62216590331915, -4 57" stroke="#000000" stroke-width="4" fill="none"></path></g><g transform="translate(253.80712045684015 467) rotate(0 -2 28.5)"><path d="M7.626959326353374 30.90280059425295 C3.976111003643902 39.09728326195558, 0.3252626809344301 47.291765929658226, -4 57 M7.626959326353374 30.90280059425295 C5.280118471175836 36.17038363570245, 2.933277615998298 41.43796667715195, -4 57" stroke="#000000" stroke-width="4" fill="none"></path></g></g><g transform="translate(144.80712045684015 540) rotate(0 69 52.5)"><text x="69" y="18.25" font-family="Virgil, Segoe UI Emoji" font-size="20px" fill="#000000" text-anchor="middle" style="white-space: pre;" direction="ltr">I think the</text><text x="69" y="44.5" font-family="Virgil, Segoe UI Emoji" font-size="20px" fill="#000000" text-anchor="middle" style="white-space: pre;" direction="ltr">recursion is</text><text x="69" y="70.75" font-family="Virgil, Segoe UI Emoji" font-size="20px" fill="#000000" text-anchor="middle" style="white-space: pre;" direction="ltr">pretty obvious</text><text x="69" y="97" font-family="Virgil, Segoe UI Emoji" font-size="20px" fill="#000000" text-anchor="middle" style="white-space: pre;" direction="ltr">now </text></g></svg>