<svg version="1.1" xmlns="http://www.w3.org/2000/svg" viewBox="0 0 662.8478557008714 159.29659469826333" width="662.8478557008714" height="159.29659469826333">
  <!-- svg-source:excalidraw -->
  
  <defs>
    <style>
      @font-face {
        font-family: "Virgil";
        src: url("https://excalidraw.com/FG_Virgil.woff2");
      }
      @font-face {
        font-family: "Cascadia";
        src: url("https://excalidraw.com/Cascadia.woff2");
      }
    </style>
  </defs>
  <g transform="translate(10 14.5) rotate(0 18 20.5)"><path d="M1.6664556805044413 1.4821536298841238 L37.037868136540055 -1.0671810749918222 L34.10232906974852 42.526525830850005 L-1.071619039401412 40.877349054440856" stroke="none" stroke-width="0" fill="#868e9655"></path><path d="M0.1441762801259756 -0.4667820390313864 C12.649738241732122 -0.560124265961349, 26.99859816171229 1.346923184581101, 36.714994644746184 1.5064965430647135 M-0.3803679971024394 -0.743588131852448 C11.22762184869498 -0.6144260364770889, 22.60452973190695 -0.9105586904287338, 36.04452183563262 -0.8864721776917577 M34.51066276989877 0.20256578363478184 C33.651207303134726 10.171489388588816, 35.2798873535078 16.80239457618445, 35.823277628049254 42.43438356555998 M36.12303283531219 0.9179933546110988 C36.55054631971754 11.002130846027285, 35.71813559674658 20.218763263896108, 35.454993781633675 41.004833239130676 M36.108707105740905 40.40070121921599 C26.949522898346185 39.586899850927296, 18.98507707901299 42.29393127974123, -1.3027628902345896 39.33252548612654 M35.11125594098121 40.43552710395306 C23.1209014525637 39.87104860804975, 8.611440099216995 39.818387099727985, -0.9963611690327525 41.6500096200034 M0.7170568462461233 42.051025146618485 C-2.0136710493545977 26.542304348852483, -0.09006530928425488 10.096077829040585, -0.45664497651159763 1.29033880867064 M0.4239314468577504 40.59487127047032 C-0.2550785128865391 23.790652133803814, -1.1552706842217595 8.327851263433693, -0.1681550769135356 0.9862823067232966" stroke="#000000" stroke-width="4" fill="none"></path></g><g transform="translate(88 13.5) rotate(0 17.5 20.999999999999986)"><path d="M1.4821536298841238 1.0378681365400553 L33.93281892500818 -1.8976709302514791 L36.526525830850005 40.92838096059856 L-0.12265094555914402 41.51620691455898" stroke="none" stroke-width="0" fill="#868e9655"></path><path d="M-0.4667820390313864 -0.03580608405172825 C11.961606931407005 1.6022786611225457, 26.225744574330747 0.6897637957241386, 36.50649654306471 0.0946302767843008 M-0.743588131852448 0.2572873504832387 C9.839353822637351 0.7969895344693214, 19.864879814907912 0.17765063461847602, 34.11352782230824 -0.8984893588349223 M35.20256578363478 -1.9470581654459238 C36.609008490834384 8.16629253868013, 34.6237200496532 16.792618935555208, 36.43438356555998 41.1290931459516 M35.9179933546111 0.45722043234854937 C35.3378358949162 13.18083099462091, 34.03982736358419 26.567036352120322, 35.004833239130676 41.30528607685116 M34.40070121921599 41.24855277501044 C25.266247637104243 41.602160575846185, 19.34852417279035 40.71626085327004, -1.667474513873458 43.337740814313264 M34.43552710395306 42.3288349183276 C27.038359088357538 40.71624661008825, 19.833714075386524 40.692578410310645, 0.6500096200034022 42.61436718422917 M1.0510251466184855 40.034852420911164 C-0.003916888479143177 28.861388465575853, -1.6312379529513417 15.349215632677065, 1.29033880867064 1.9446333404630423 M-0.4051287295296788 42.031096872873576 C-1.1810430102236569 25.599351969361287, -0.35734553264453994 10.768739458732298, 0.9862823067232966 0.8332278402522206" stroke="#000000" stroke-width="4" fill="none"></path></g><g transform="translate(173 16.5) rotate(0 19.5 20)"><path d="M1.0378681365400553 -1.0671810749918222 L37.10232906974852 1.5265258308500051 L37.92838096059859 39.877349054440856 L-0.4837930854409933 38.82397267781198" stroke="none" stroke-width="0" fill="#868e9655"></path><path d="M-0.03580608405172825 -0.395483260974288 C15.11112039750442 1.6025866871792824, 27.682216419465842 1.597519040675834, 39.0946302767843 -0.10190934501588345 M0.2572873504832387 -0.4823048235848546 C13.795173875149338 -0.48843810611404476, 26.307148114964363 -0.596472806269303, 38.10151064116508 -0.9798403205350041 M37.052941834554076 1.5552957598119974 C38.383754438906905 12.08155713789165, 38.525410182029006 26.457483204081655, 38.12909314595163 40.45524823106825 M39.45722043234855 0.48748989682644606 C38.67402284350246 9.764205156825483, 38.50420691575855 21.15428082179278, 38.30528607685119 39.46421568375081 M38.24855277501047 38.89100253023207 C30.177582524809985 41.48117069679312, 20.886128494702277 38.21566222387366, 1.3377408143132925 38.08684771694243 M39.32883491832763 39.19034259300679 C29.786325201112774 38.91753665522672, 21.521675171703098 40.429865190545094, 0.6143671842291951 40.11834992747754 M-1.965147579088807 40.361209804192185 C-0.1849532082676888 23.256491666659713, -0.6000563457608223 10.335544662550092, 1.9446333404630423 1.3959774915128946 M0.031096872873604298 39.07715048175305 C-1.0386678772047162 25.441862321458757, -0.33772765565663576 12.068311030976474, 0.8332278402522206 0.7410768149420619" stroke="#000000" stroke-width="4" fill="none"></path></g><g transform="translate(26 17.5) rotate(0 3 23)"><text x="3" y="32" font-family="Virgil, Segoe UI Emoji" font-size="36px" fill="#000000" text-anchor="middle" style="white-space: pre;" direction="ltr">1</text></g><g transform="translate(93.5 13.5) rotate(0 13.5 23)"><text x="13.5" y="32" font-family="Virgil, Segoe UI Emoji" font-size="36px" fill="#000000" text-anchor="middle" style="white-space: pre;" direction="ltr">2</text></g><g transform="translate(181 17.5) rotate(0 13 23)"><text x="13" y="32" font-family="Virgil, Segoe UI Emoji" font-size="36px" fill="#000000" text-anchor="middle" style="white-space: pre;" direction="ltr">3</text></g><g transform="translate(247.5 11) rotate(0 19.5 20)"><path d="M-0.7908355053514242 1.5793211814016104 L38.412747437134385 0.731537913903594 L39.066642040386796 40.8779315110296 L-1.3680310901254416 39.77124855481088" stroke="none" stroke-width="0" fill="#868e9655"></path><path d="M1.0571759697049856 -1.058766370639205 C8.121373147424311 -0.868094916967675, 16.04211291242391 1.6455981176812202, 37.85288790427148 -0.2479729112237692 M0.3505992563441396 -0.22329701203852892 C7.224156407173723 0.4009119064267725, 15.763817874714732 1.1878547758515925, 39.294618842191994 -0.4538685502484441 M39.24509838782251 -0.8557214196771383 C40.25699977353215 8.817614180967212, 39.98328839018941 17.740272672846913, 39.98921081982553 38.19548379816115 M39.96414088923484 0.044864255003631115 C38.638826992176476 9.259134351275861, 38.706907030008736 15.947482625953853, 38.006363180465996 40.15708427410573 M37.62264749966562 41.81745635904372 C23.337425504717974 40.061368768988174, 9.123467776738103 41.927413945971054, -1.8128302935510874 40.868899995461106 M39.97556021530181 39.267152833752334 C30.624660297948864 40.43913569168188, 20.938949169963596 39.55957656220533, 0.9597657294943929 40.85152842383832 M0.290836488828063 38.96815221942961 C0.036969666182994854 29.259465938434005, 0.42964393347501756 15.524833993986245, 0.038012122735381126 -1.1168234404176474 M-0.45227045100182295 40.453059691004455 C0.040035025589168105 24.52078828867525, -0.5897323029115795 9.39065902959555, 0.588206616230309 -0.6784279467537999" stroke="#000000" stroke-width="4" fill="none"></path></g><g transform="translate(324.5 12) rotate(0 19.5 20)"><path d="M0.5211330410093069 -0.38697743974626064 L39.2120060082525 1.7420243564993143 L40.25771257840097 39.04387199319899 L-1.255016291514039 39.10859232582152" stroke="none" stroke-width="0" fill="#868e9655"></path><path d="M-1.3775780852884054 -1.0717549566179514 C16.250044418219478 0.422107122419402, 29.011389227025212 1.6483594994526356, 38.57277035154402 1.1976393815129995 M-0.900789481587708 -0.0090657202526927 C10.627258459571749 1.3160215485934168, 20.522145809605718 -0.005666060363873848, 39.86229227762669 -0.28946668189018965 M40.229990715160966 0.8818115349858999 C40.52715057656169 7.237841414287686, 40.420001631230114 15.666295228525996, 38.686070734634995 38.320431565865874 M38.33584045153111 0.35443585831671953 C39.610750747658315 16.079792038537562, 37.90458677504212 30.94290170539171, 39.05954213719815 40.15850469190627 M39.257094198837876 38.19407210312784 C28.552556353714316 40.62293257412501, 20.964284759201107 40.00788017210551, 1.7736543361097574 40.068458354100585 M39.9078537998721 39.01077362615615 C25.274947144370525 39.32994897811673, 13.895537612587212 39.426563905170184, 0.15220348816365004 39.01457714755088 M-0.7908355053514242 41.57932118140161 C-0.8225352093577385 26.117580199614167, -0.1686406061053276 11.650016082450747, -1.3680310901254416 -0.22875144518911839 M0.2788430927321315 40.03492927271873 C-0.11934559475630524 23.665737965144217, 0.5497364806011319 9.048618991859257, -0.3072639526799321 0.061740186996757984" stroke="#000000" stroke-width="4" fill="none"></path></g><g transform="translate(258.5 10) rotate(0 10.5 23)"><text x="10.5" y="32" font-family="Virgil, Segoe UI Emoji" font-size="36px" fill="#000000" text-anchor="middle" style="white-space: pre;" direction="ltr">4</text></g><g transform="translate(330 10) rotate(0 13 23)"><text x="13" y="32" font-family="Virgil, Segoe UI Emoji" font-size="36px" fill="#000000" text-anchor="middle" style="white-space: pre;" direction="ltr">5</text></g><g><g transform="translate(44 29) rotate(0 21 3)"><path d="M0 0 C7 1, 35 5, 42 6 M0 0 C7 1, 35 5, 42 6" stroke="#000000" stroke-width="2" fill="none"></path></g><g transform="translate(44 29) rotate(0 21 3)"><path d="M21.240394533518916 10.363345147481317 C27.727769194335387 8.999800219237311, 34.21514385515186 7.636255290993306, 42 6 M21.240394533518916 10.363345147481317 C25.669148002619202 9.4324902721326, 30.097901471719485 8.501635396783884, 42 6" stroke="#000000" stroke-width="2" fill="none"></path></g><g transform="translate(44 29) rotate(0 21 3)"><path d="M23.292515393472932 -4.00150087219677 C29.138602487948422 -0.8760328360539122, 34.98468958242391 2.2494352000889455, 42 6 M23.292515393472932 -4.00150087219677 C27.283479358711563 -1.8678292205139222, 31.274443323950194 0.2658424311689256, 42 6" stroke="#000000" stroke-width="2" fill="none"></path></g></g><g><g transform="translate(126 33) rotate(0 22.5 2)"><path d="M0 0 C7.5 0.6666666666666666, 37.5 3.3333333333333335, 45 4 M0 0 C7.5 0.6666666666666666, 37.5 3.3333333333333335, 45 4" stroke="#000000" stroke-width="2" fill="none"></path></g><g transform="translate(126 33) rotate(0 22.5 2)"><path d="M23.172875745665717 9.816067983255731 C30.86819470665667 7.765568902000316, 38.56351366764763 5.7150698207449, 45 4 M23.172875745665717 9.816067983255731 C29.314934205280416 8.179451581479555, 35.45699266489512 6.5428351797033795, 45 4" stroke="#000000" stroke-width="2" fill="none"></path></g><g transform="translate(126 33) rotate(0 22.5 2)"><path d="M24.540956318968394 -5.574838466399363 C31.753948050168233 -2.1991562125047674, 38.966939781368076 1.1765260413898284, 45 4 M24.540956318968394 -5.574838466399363 C30.29804281613964 -2.88052029068666, 36.05512931331088 -0.18620211497395633, 45 4" stroke="#000000" stroke-width="2" fill="none"></path></g></g><g><g transform="translate(209 33) rotate(0 19 -0.5)"><path d="M0 0 C6.333333333333333 -0.16666666666666666, 31.666666666666668 -0.8333333333333334, 38 -1 M0 0 C6.333333333333333 -0.16666666666666666, 31.666666666666668 -0.8333333333333334, 38 -1" stroke="#000000" stroke-width="2" fill="none"></path></g><g transform="translate(209 33) rotate(0 19 -0.5)"><path d="M20.316850276730573 5.96822903358066 C25.451106648623878 3.945021919669582, 30.58536302051718 1.9218148057585038, 38 -1 M20.316850276730573 5.96822903358066 C24.226146191505965 4.42773032602577, 28.13544210628136 2.887231618470881, 38 -1" stroke="#000000" stroke-width="2" fill="none"></path></g><g transform="translate(209 33) rotate(0 19 -0.5)"><path d="M19.974830133404904 -7.028536412794751 C25.208391161293676 -5.278166598877938, 30.44195218918245 -3.5277967849611254, 38 -1 M19.974830133404904 -7.028536412794751 C23.959738027380727 -5.6957799107333145, 27.944645921356546 -4.363023408671879, 38 -1" stroke="#000000" stroke-width="2" fill="none"></path></g></g><g><g transform="translate(287 29) rotate(0 18 0.5)"><path d="M0 0 C6 0.16666666666666666, 30 0.8333333333333334, 36 1 M0 0 C6 0.16666666666666666, 30 0.8333333333333334, 36 1" stroke="#000000" stroke-width="2" fill="none"></path></g><g transform="translate(287 29) rotate(0 18 0.5)"><path d="M18.914522754190813 6.686516269469083 C22.907738787038785 5.357464255785088, 26.900954819886756 4.028412242101092, 36 1 M18.914522754190813 6.686516269469083 C23.890287914060355 5.030444909706752, 28.866053073929898 3.3743735499444205, 36 1" stroke="#000000" stroke-width="2" fill="none"></path></g><g transform="translate(287 29) rotate(0 18 0.5)"><path d="M19.256542897516482 -5.626208890254992 C23.169822016678296 -4.077532011237391, 27.083101135840113 -2.528855132219791, 36 1 M19.256542897516482 -5.626208890254992 C24.132702299311525 -3.6964729593353107, 29.008861701106568 -1.7667370284156299, 36 1" stroke="#000000" stroke-width="2" fill="none"></path></g></g><g><g transform="translate(264 51) rotate(0 23.5 26)"><path d="M0 0 C7.833333333333333 8.666666666666666, 39.166666666666664 43.333333333333336, 47 52 M0 0 C7.833333333333333 8.666666666666666, 39.166666666666664 43.333333333333336, 47 52" stroke="#000000" stroke-width="2" fill="none"></path></g><g transform="translate(264 51) rotate(0 23.5 26)"><path d="M20.48489239092524 37.96614562997086 C26.562920040167054 41.1831099411878, 32.64094768940887 44.400074252404735, 47 52 M20.48489239092524 37.96614562997086 C26.46548168697108 41.131537996658345, 32.446070983016924 44.29693036334582, 47 52" stroke="#000000" stroke-width="2" fill="none"></path></g><g transform="translate(264 51) rotate(0 23.5 26)"><path d="M35.70903686256657 24.205861203679653 C38.297251368337726 30.577079702264303, 40.88546587410889 36.94829820084895, 47 52 M35.70903686256657 24.205861203679653 C38.25575906627626 30.47494113459404, 40.80248126998596 36.74402106550843, 47 52" stroke="#000000" stroke-width="2" fill="none"></path></g></g><g transform="translate(313.5 84) rotate(0 19.5 20)"><path d="M1.5879372712224722 -0.6799808200448751 L39.64583561383188 -0.8690847214311361 L39.41141179762781 39.258883291855454 L1.555381154641509 39.80371570028365" stroke="none" stroke-width="0" fill="#868e9655"></path><path d="M1.5591109935194254 -0.15323182381689548 C13.135871527437121 1.154419903336093, 27.44565856587142 0.5291307612042874, 39.535000735893846 1.0205223318189383 M0.5382913826033473 -0.1366703538224101 C15.67063514078036 -0.047347148871049294, 29.88627948947251 -0.2472038175817579, 39.834455150179565 -0.015445682220160961 M37.3302368465811 -1.1371786836534739 C38.62766596600413 14.374655472114682, 38.57515302225947 29.20824217610061, 38.45999049581587 41.20122352801263 M39.54942025523633 -0.9348594872280955 C38.17829293701798 12.512981639243662, 39.11129961106926 24.199986164458096, 38.92012606840581 40.40544801671058 M40.54061173833907 38.869221365079284 C29.897776660230008 38.65465883758851, 18.622855781950054 39.03462253359147, -0.5761002954095602 39.062640285119414 M39.9295323966071 39.458316621370614 C26.31868433235213 39.105254423609004, 12.507872698456048 40.29592929481529, 0.740472394041717 39.34293278772384 M1.4437146726995707 41.55096588097513 C-1.5851643845438956 23.777021849527955, -1.0454570218920707 9.156739545986053, -1.8412770088762045 -0.2824954632669687 M-0.028678101487457752 39.67936309892684 C0.5539017366245389 29.09148819092661, -0.9333167327567935 18.245767404325303, -0.91669459361583 0.2352715702727437" stroke="#000000" stroke-width="4" fill="none"></path></g><g transform="translate(323 82) rotate(0 9 23)"><text x="9" y="32" font-family="Virgil, Segoe UI Emoji" font-size="36px" fill="#000000" text-anchor="middle" style="white-space: pre;" direction="ltr">6</text></g><g><g transform="translate(351 106) rotate(0 25 0.5)"><path d="M0 0 C8.333333333333334 0.16666666666666666, 41.666666666666664 0.8333333333333334, 50 1 M0 0 C8.333333333333334 0.16666666666666666, 41.666666666666664 0.8333333333333334, 50 1" stroke="#000000" stroke-width="2" fill="none"></path></g><g transform="translate(351 106) rotate(0 25 0.5)"><path d="M26.336674408689454 9.080657272748763 C32.326619679612755 7.035184220785709, 38.31656495053605 4.989711168822655, 50 1 M26.336674408689454 9.080657272748763 C31.880832548136063 7.187413585680545, 37.42499068758267 5.294169898612328, 50 1" stroke="#000000" stroke-width="2" fill="none"></path></g><g transform="translate(351 106) rotate(0 25 0.5)"><path d="M26.678694552015124 -8.020349893534672 C32.58206357514228 -5.737010555690609, 38.48543259826944 -3.453671217846546, 50 1 M26.678694552015124 -8.020349893534672 C32.14271967067576 -5.906942541304309, 37.606744789336396 -3.793535189073946, 50 1" stroke="#000000" stroke-width="2" fill="none"></path></g></g><g transform="translate(402.5 88) rotate(0 19.5 20)"><path d="M-1.3018076661974192 0.44214498437941074 L37.78054097853601 -0.5064250882714987 L37.35456404648721 41.16108798421919 L-1.121913755312562 40.10111730732024" stroke="none" stroke-width="0" fill="#868e9655"></path><path d="M0.6599374357610941 -0.16003837622702122 C11.471608824376018 1.7511979852896185, 26.754771072976293 -1.3548288429994135, 37.36560737527907 -1.7663879040628672 M-0.792902153916657 -0.17987171094864607 C8.557132611516863 -0.5266931503172964, 17.414692820981145 -1.002156928097829, 39.013691949658096 0.9241019459441304 M39.19570981897414 -0.8913282994180918 C37.95244721695781 10.361548589542508, 38.96486995741725 18.31978398375213, 40.076911145821214 39.577919935807586 M39.93668775539845 0.8546408386901021 C39.20165506694466 15.62563391122967, 39.47095305416733 30.45521787274629, 38.14732219558209 40.38970294315368 M37.24757450260222 40.668815111741424 C30.20625988235697 41.520829673977566, 22.454917567409574 40.9550898635108, 0.9645245019346476 38.562232887372375 M39.34889008384198 39.27323713619262 C24.71957376776263 40.64801569252275, 10.12897186055779 39.08951167731546, 0.0021085618063807487 39.78238695580512 M-1.792317634448409 39.035467540845275 C1.2546039775013924 31.018836641684175, 0.4550722196698189 18.418379677459598, 1.5866139475256205 -0.5581389907747507 M-0.2548120142892003 39.96925824601203 C0.2677218543365598 31.489263572730124, 0.41556178797036414 23.725147386081517, 0.5309013901278377 -0.8589971391484141" stroke="#000000" stroke-width="4" fill="none"></path></g><g transform="translate(418 86) rotate(0 3 23)"><text x="3" y="32" font-family="Virgil, Segoe UI Emoji" font-size="36px" fill="#000000" text-anchor="middle" style="white-space: pre;" direction="ltr">1</text></g><g><g transform="translate(441 111) rotate(0 23.5 1)"><path d="M0 0 C7.833333333333333 0.3333333333333333, 39.166666666666664 1.6666666666666667, 47 2 M0 0 C7.833333333333333 0.3333333333333333, 39.166666666666664 1.6666666666666667, 47 2" stroke="#000000" stroke-width="2" fill="none"></path></g><g transform="translate(441 111) rotate(0 23.5 1)"><path d="M24.57520326820548 9.097780747367306 C32.49317786356823 6.591624356597123, 40.41115245893097 4.085467965826941, 47 2 M24.57520326820548 9.097780747367306 C29.160218258260894 7.646555502740459, 33.74523324831631 6.1953302581136125, 47 2" stroke="#000000" stroke-width="2" fill="none"></path></g><g transform="translate(441 111) rotate(0 23.5 1)"><path d="M25.25924355485682 -6.977165988939124 C32.935690270315504 -3.8074172019637738, 40.612136985774185 -0.6376684149884237, 47 2 M25.25924355485682 -6.977165988939124 C29.70439841571644 -5.141678197464829, 34.14955327657606 -3.3061904059905336, 47 2" stroke="#000000" stroke-width="2" fill="none"></path></g></g><g transform="translate(493.5 91) rotate(0 17.5 21)"><path d="M-0.3267796691507101 -1.9814095739275217 L34.37845694459975 1.4951727744191885 L36.48499398864806 40.144826030358644 L0.8973114434629679 40.12068740092215" stroke="none" stroke-width="0" fill="#868e9655"></path><path d="M1.4270196314901114 -0.33536834083497524 C10.379686932545157 -2.152553571900353, 22.525993988849226 0.5421754582319409, 36.90127274952829 0.33689248003065586 M0.33142268378287554 0.10436888318508863 C7.229941457044334 0.48607168900780384, 14.161660494282843 -0.32981728208251293, 34.9059745343402 -0.7032528640702367 M33.32322261296213 0.2787502948194742 C34.16779318442568 8.214687437377863, 36.26648208489642 19.606795615702854, 35.58492652140558 40.98811476863918 M35.19429388362914 0.7600566623732448 C35.46464793881402 10.66239328645169, 35.66084363063798 22.329426985420273, 35.780042824335396 41.44717349391428 M33.85796586237848 42.870142871513934 C21.375514269340783 42.89548444687386, 11.047517861239612 40.80767792402764, 0.12092671357095242 43.25339078344402 M35.387324270792305 42.52987541537729 C26.86978733027354 42.68863595281725, 18.917738251388073 43.23950914298182, 0.6102773817256093 42.699493276886614 M-1.6978155616670847 42.74502276815471 C-1.2260610110126433 33.97408340591935, -0.03898938959464415 21.700452774763093, -1.042057240381837 -1.1450504716485739 M-0.18344977777451277 42.69577704649416 C0.14789780931547264 30.26203428208826, 0.6100522871501741 19.856599432416246, -0.7705276040360332 -0.13797442335635424" stroke="#000000" stroke-width="4" fill="none"></path></g><g transform="translate(499 91) rotate(0 13.5 23)"><text x="13.5" y="32" font-family="Virgil, Segoe UI Emoji" font-size="36px" fill="#000000" text-anchor="middle" style="white-space: pre;" direction="ltr">2</text></g><g><g transform="translate(531 116.479228399308) rotate(0 25 -0.7747749553664107)"><path d="M0 0 C8.333333333333334 -0.25825831845547026, 41.666666666666664 -1.2912915922773511, 50 -1.5495499107328214 M0 0 C8.333333333333334 -0.25825831845547026, 41.666666666666664 -1.2912915922773511, 50 -1.5495499107328214" stroke="#000000" stroke-width="2" fill="none"></path></g><g transform="translate(531 116.479228399308) rotate(0 25 -0.7747749553664107)"><path d="M26.772673121631847 7.729003980736444 C33.88131140036426 4.8893365618563465, 40.98994967909667 2.0496691429762492, 50 -1.5495499107328214 M26.772673121631847 7.729003980736444 C35.15838240832383 4.379188655787081, 43.544091695015815 1.0293733308377186, 50 -1.5495499107328214" stroke="#000000" stroke-width="2" fill="none"></path></g><g transform="translate(531 116.479228399308) rotate(0 25 -0.7747749553664107)"><path d="M26.24269583907273 -9.37200318554699 C33.51353172312523 -6.977970024773459, 40.78436760717774 -4.583936863999927, 50 -1.5495499107328214 M26.24269583907273 -9.37200318554699 C34.81974162536987 -6.547880572780288, 43.39678741166702 -3.723757960013587, 50 -1.5495499107328214" stroke="#000000" stroke-width="2" fill="none"></path></g></g><g><g transform="translate(363 32) rotate(0 21.5 0)"><path d="M0 0 C7.166666666666667 0, 35.833333333333336 0, 43 0 M0 0 C7.166666666666667 0, 35.833333333333336 0, 43 0" stroke="#000000" stroke-width="2" fill="none"></path></g><g transform="translate(363 32) rotate(0 21.5 0)"><path d="M22.796608653102968 7.353433081501877 C28.527523180169013 5.267550778526068, 34.25843770723505 3.181668475550258, 43 0 M22.796608653102968 7.353433081501877 C27.189967614498265 5.754381191107312, 31.583326575893565 4.155329300712745, 43 0" stroke="#000000" stroke-width="2" fill="none"></path></g><g transform="translate(363 32) rotate(0 21.5 0)"><path d="M22.796608653102968 -7.353433081501877 C28.527523180169013 -5.267550778526068, 34.25843770723505 -3.181668475550258, 43 0 M22.796608653102968 -7.353433081501877 C27.189967614498265 -5.754381191107312, 31.583326575893565 -4.155329300712745, 43 0" stroke="#000000" stroke-width="2" fill="none"></path></g></g><g><g transform="translate(415 45) rotate(0 2.4279999999999973 2.326750000000004)" fill-rule="evenodd"><path d="M0 0 L-2 1 L-2.5625 2.5 L-2 4 L5 5 L7 4 L7 0 L2 1 L0.8750000000000001 2.5 L1 4 L3.5 5 L6 5 L6.1875 2.5624999999999996 L5 0 L1.8124999999999998 -0.5625 L-1 0 L1 4 L0 0" stroke="none" stroke-width="0" fill="#868e9677" fill-rule="evenodd"></path><path d="M0 0 C-0.3333333333333333 0.16666666666666666, -1.6666666666666667 0.33333333333333337, -2 1 C-2.3333333333333335 1.6666666666666665, -3.166666666666667 3.3333333333333335, -2 4 C-0.8333333333333333 4.666666666666667, 3.5 5, 5 5 C6.5 5, 6.666666666666667 4.833333333333333, 7 4 C7.333333333333333 3.1666666666666665, 7.833333333333333 0.5, 7 0 C6.166666666666667 -0.5, 3 0.33333333333333337, 2 1 C1 1.6666666666666665, 0.33333333333333337 3.3333333333333335, 1 4 C1.6666666666666665 4.666666666666667, 5.333333333333333 5.666666666666667, 6 5 C6.666666666666667 4.333333333333333, 6.166666666666667 0.8333333333333334, 5 0 C3.833333333333333 -0.8333333333333334, -0.33333333333333337 -0.6666666666666666, -1 0 C-1.6666666666666665 0.6666666666666666, 0.8333333333333334 4, 1 4 C1.1666666666666667 4, 0.16666666666666666 0.6666666666666666, 0 0 M0 0 C-0.3333333333333333 0.16666666666666666, -1.6666666666666667 0.33333333333333337, -2 1 C-2.3333333333333335 1.6666666666666665, -3.166666666666667 3.3333333333333335, -2 4 C-0.8333333333333333 4.666666666666667, 3.5 5, 5 5 C6.5 5, 6.666666666666667 4.833333333333333, 7 4 C7.333333333333333 3.1666666666666665, 7.833333333333333 0.5, 7 0 C6.166666666666667 -0.5, 3 0.33333333333333337, 2 1 C1 1.6666666666666665, 0.33333333333333337 3.3333333333333335, 1 4 C1.6666666666666665 4.666666666666667, 5.333333333333333 5.666666666666667, 6 5 C6.666666666666667 4.333333333333333, 6.166666666666667 0.8333333333333334, 5 0 C3.833333333333333 -0.8333333333333334, -0.33333333333333337 -0.6666666666666666, -1 0 C-1.6666666666666665 0.6666666666666666, 0.8333333333333334 4, 1 4 C1.1666666666666667 4, 0.16666666666666666 0.6666666666666666, 0 0" stroke="#000000" stroke-width="4" fill="none"></path></g></g><g><g transform="translate(439 45) rotate(0 4.636250000000018 1.71875)" fill-rule="evenodd"><path d="M0 0 L-1 3 L-5.551115123125783e-17 4.875 L2 6 L5.625 5 L9 3 L10.25 0.3125000000000002 L10 -2 L7.625000000000001 -2.5625 L5 -2 L4 2 L7 3 L9 0 L4 0 L2 2 L0 0" stroke="none" stroke-width="0" fill="#868e9677" fill-rule="evenodd"></path><path d="M0 0 C-0.16666666666666666 0.5, -1.3333333333333333 2, -1 3 C-0.6666666666666667 4, 0.33333333333333326 6, 2 6 C3.666666666666667 6, 7.666666666666667 4.333333333333333, 9 3 C10.333333333333334 1.6666666666666667, 10.666666666666666 -1.1666666666666665, 10 -2 C9.333333333333334 -2.8333333333333335, 6 -2.6666666666666665, 5 -2 C4 -1.3333333333333335, 3.6666666666666665 1.1666666666666665, 4 2 C4.333333333333333 2.8333333333333335, 6.166666666666667 3.3333333333333335, 7 3 C7.833333333333333 2.6666666666666665, 9.5 0.5, 9 0 C8.5 -0.5, 5.166666666666667 -0.3333333333333333, 4 0 C2.833333333333333 0.3333333333333333, 2.6666666666666665 2, 2 2 C1.3333333333333335 2, 0.3333333333333333 0.3333333333333333, 0 0 M0 0 C-0.16666666666666666 0.5, -1.3333333333333333 2, -1 3 C-0.6666666666666667 4, 0.33333333333333326 6, 2 6 C3.666666666666667 6, 7.666666666666667 4.333333333333333, 9 3 C10.333333333333334 1.6666666666666667, 10.666666666666666 -1.1666666666666665, 10 -2 C9.333333333333334 -2.8333333333333335, 6 -2.6666666666666665, 5 -2 C4 -1.3333333333333335, 3.6666666666666665 1.1666666666666665, 4 2 C4.333333333333333 2.8333333333333335, 6.166666666666667 3.3333333333333335, 7 3 C7.833333333333333 2.6666666666666665, 9.5 0.5, 9 0 C8.5 -0.5, 5.166666666666667 -0.3333333333333333, 4 0 C2.833333333333333 0.3333333333333333, 2.6666666666666665 2, 2 2 C1.3333333333333335 2, 0.3333333333333333 0.3333333333333333, 0 0" stroke="#000000" stroke-width="4" fill="none"></path></g></g><g><g transform="translate(467 45) rotate(0 1.3319999999999936 -0.6882499999999965)" fill-rule="evenodd"><path d="M0 0 L-2 0 L0 3 L4 2 L5 -4 L1 -4 L-2 -2 L-2 1 L0.4375 1.4375 L3 1 L4 -3 L3 -4 L0 0" stroke="none" stroke-width="0" fill="#868e9677" fill-rule="evenodd"></path><path d="M0 0 C-0.3333333333333333 0, -2 -0.5, -2 0 C-2 0.5, -1 2.6666666666666665, 0 3 C1 3.3333333333333335, 3.1666666666666665 3.166666666666667, 4 2 C4.833333333333333 0.8333333333333333, 5.5 -3, 5 -4 C4.5 -5, 2.166666666666667 -4.333333333333333, 1 -4 C-0.16666666666666674 -3.6666666666666665, -1.5 -2.8333333333333335, -2 -2 C-2.5 -1.1666666666666665, -2.8333333333333335 0.5, -2 1 C-1.1666666666666665 1.5, 2 1.6666666666666665, 3 1 C4 0.33333333333333337, 4 -2.1666666666666665, 4 -3 C4 -3.8333333333333335, 3.6666666666666665 -4.5, 3 -4 C2.3333333333333335 -3.5, 0.5 -0.6666666666666666, 0 0 M0 0 C-0.3333333333333333 0, -2 -0.5, -2 0 C-2 0.5, -1 2.6666666666666665, 0 3 C1 3.3333333333333335, 3.1666666666666665 3.166666666666667, 4 2 C4.833333333333333 0.8333333333333333, 5.5 -3, 5 -4 C4.5 -5, 2.166666666666667 -4.333333333333333, 1 -4 C-0.16666666666666674 -3.6666666666666665, -1.5 -2.8333333333333335, -2 -2 C-2.5 -1.1666666666666665, -2.8333333333333335 0.5, -2 1 C-1.1666666666666665 1.5, 2 1.6666666666666665, 3 1 C4 0.33333333333333337, 4 -2.1666666666666665, 4 -3 C4 -3.8333333333333335, 3.6666666666666665 -4.5, 3 -4 C2.3333333333333335 -3.5, 0.5 -0.6666666666666666, 0 0" stroke="#000000" stroke-width="4" fill="none"></path></g></g><g><g transform="translate(663.3303714486915 162.67888262921156) rotate(25.76698845585773 -43.81537706257541 -46.00819918094609)" fill-rule="evenodd"><path d="M-44.9980198572553 -78.55435051955283 L-20.3508445150754 -68.35864032586474 L-10.775392314265535 -47.55939538404752 L-20.909634364356712 -22.07468939791877 L-45.88281146988042 -12.972986696296122 L-68.70206363338752 -23.488939175712655 L-80.69289023242891 -44.82576115057279 L-67.93961019653602 -70.7278545029964 L-42.67199151023992 -78.84001174010336" stroke="none" stroke-width="0" fill="#fa5252" fill-rule="evenodd"></path><path d="M-43.69272685229548 -78.7557081039995 C-36.62235343657532 -76.25274662604497, -25.8438463891395 -74.71820851474622, -17.788480730315165 -68.49638616447706 M-43.45154447380223 -80.64111585635692 C-35.038410724185184 -76.073868396212, -26.75311878965078 -73.55430951811515, -20.078016350564972 -70.67031124295104 M-19.133666486998514 -69.95804702644605 C-15.659794519224924 -62.42298456623499, -12.716153503876445 -60.442462646300356, -7.1444242986245605 -45.1023123785894 M-18.89746219902994 -70.14086249531616 C-15.692611766429206 -62.52656986570664, -11.974717787991231 -54.73395313906888, -7.9224976178585145 -45.47950512078066 M-8.528657296518848 -47.41335373372246 C-13.009290155586841 -37.570148214896584, -14.900244147722638 -27.471248541483558, -19.999860854407267 -22.397590628224204 M-9.653694259780512 -46.07260733750124 C-12.71196891585365 -38.76352977227675, -14.951683880018598 -33.32500184172872, -18.770104418096558 -22.8246534740131 M-17.53788718726249 -24.466703882771323 C-22.72276589839337 -18.772309126943984, -27.819611598027137 -17.16928465854464, -44.94765424906977 -11.99878094532409 M-20.172085056600586 -21.83205470196415 C-24.479127115844932 -19.421405117867177, -30.83923380521529 -17.6622772601734, -44.287583659326216 -11.731343434200372 M-43.86359501063593 -11.37528250553527 C-52.89008654719253 -16.306348413974227, -59.871315447996096 -18.168595219427498, -68.75934878203793 -20.70034967954714 M-44.189693997537276 -12.499479220256891 C-51.64375204976227 -16.119067448876102, -57.489750751832695 -17.082008706139604, -69.21977676011397 -22.019279388109933 M-68.88670006606503 -24.074180951672385 C-70.93932836705785 -28.967955194348708, -73.2535367926461 -33.01580759192843, -79.07562937773764 -46.02704434842278 M-69.77167500115706 -22.69927277914692 C-72.68997758358874 -27.791103251341617, -75.29035951350967 -33.26316372778892, -80.48632982652634 -45.94840782788057 M-80.35726227797568 -47.728771738712084 C-78.22360647714872 -53.52283125723161, -73.71593389915796 -63.86609984795395, -69.09678176257535 -68.55651878719587 M-80.40798667352647 -46.24606937077303 C-77.9737837420776 -50.97142392921423, -75.3722241713302 -56.489620273516024, -69.2784038291104 -69.63529250086654 M-69.08494237277432 -69.05733370189924 C-60.47399268264188 -72.90612418582214, -50.56416109686939 -78.95423775806987, -43.2193219679571 -79.02853620611131 M-69.11010248519256 -69.56112024248947 C-60.943704048279905 -73.69637797265744, -51.250896533278606 -77.15122389904226, -45.101554105912825 -80.2560674669221 M-44.440945126039466 -80 C-44.440945126039466 -80, -44.440945126039466 -80, -44.440945126039466 -80 M-44.440945126039466 -80 C-44.440945126039466 -80, -44.440945126039466 -80, -44.440945126039466 -80" stroke="#000000" stroke-width="1" fill="none"></path></g></g><g transform="translate(593.5 104) rotate(0 27 13)"><text x="27" y="18" font-family="Virgil, Segoe UI Emoji" font-size="20px" fill="#000000" text-anchor="middle" style="white-space: pre;" direction="ltr">STOP</text></g></svg>