<svg version="1.1" xmlns="http://www.w3.org/2000/svg" viewBox="0 0 585.5 713" width="585.5" height="713">
  <!-- svg-source:excalidraw -->
  
  <defs>
    <style>
      @font-face {
        font-family: "Virgil";
        src: url("https://excalidraw.com/FG_Virgil.woff2");
      }
      @font-face {
        font-family: "Cascadia";
        src: url("https://excalidraw.com/Cascadia.woff2");
      }
    </style>
  </defs>
  <g transform="translate(150 43.5) rotate(0 18 20.5)"><path d="M1.6664556805044413 1.4821536298841238 L37.037868136540055 -1.0671810749918222 L34.10232906974852 42.526525830850005 L-1.071619039401412 40.877349054440856" stroke="none" stroke-width="0" fill="#868e9655"></path><path d="M0.1441762801259756 -0.4667820390313864 C12.649738241732122 -0.560124265961349, 26.99859816171229 1.346923184581101, 36.714994644746184 1.5064965430647135 M-0.3803679971024394 -0.743588131852448 C11.22762184869498 -0.6144260364770889, 22.60452973190695 -0.9105586904287338, 36.04452183563262 -0.8864721776917577 M34.51066276989877 0.20256578363478184 C33.651207303134726 10.171489388588816, 35.2798873535078 16.80239457618445, 35.823277628049254 42.43438356555998 M36.12303283531219 0.9179933546110988 C36.55054631971754 11.002130846027285, 35.71813559674658 20.218763263896108, 35.454993781633675 41.004833239130676 M36.108707105740905 40.40070121921599 C26.949522898346185 39.586899850927296, 18.98507707901299 42.29393127974123, -1.3027628902345896 39.33252548612654 M35.11125594098121 40.43552710395306 C23.1209014525637 39.87104860804975, 8.611440099216995 39.818387099727985, -0.9963611690327525 41.6500096200034 M0.7170568462461233 42.051025146618485 C-2.0136710493545977 26.542304348852483, -0.09006530928425488 10.096077829040585, -0.45664497651159763 1.29033880867064 M0.4239314468577504 40.59487127047032 C-0.2550785128865391 23.790652133803814, -1.1552706842217595 8.327851263433693, -0.1681550769135356 0.9862823067232966" stroke="#000000" stroke-width="4" fill="none"></path></g><g transform="translate(204 42.5) rotate(0 17.5 20.999999999999986)"><path d="M1.4821536298841238 1.0378681365400553 L33.93281892500818 -1.8976709302514791 L36.526525830850005 40.92838096059856 L-0.12265094555914402 41.51620691455898" stroke="none" stroke-width="0" fill="#868e9655"></path><path d="M-0.4667820390313864 -0.03580608405172825 C11.961606931407005 1.6022786611225457, 26.225744574330747 0.6897637957241386, 36.50649654306471 0.0946302767843008 M-0.743588131852448 0.2572873504832387 C9.839353822637351 0.7969895344693214, 19.864879814907912 0.17765063461847602, 34.11352782230824 -0.8984893588349223 M35.20256578363478 -1.9470581654459238 C36.609008490834384 8.16629253868013, 34.6237200496532 16.792618935555208, 36.43438356555998 41.1290931459516 M35.9179933546111 0.45722043234854937 C35.3378358949162 13.18083099462091, 34.03982736358419 26.567036352120322, 35.004833239130676 41.30528607685116 M34.40070121921599 41.24855277501044 C25.266247637104243 41.602160575846185, 19.34852417279035 40.71626085327004, -1.667474513873458 43.337740814313264 M34.43552710395306 42.3288349183276 C27.038359088357538 40.71624661008825, 19.833714075386524 40.692578410310645, 0.6500096200034022 42.61436718422917 M1.0510251466184855 40.034852420911164 C-0.003916888479143177 28.861388465575853, -1.6312379529513417 15.349215632677065, 1.29033880867064 1.9446333404630423 M-0.4051287295296788 42.031096872873576 C-1.1810430102236569 25.599351969361287, -0.35734553264453994 10.768739458732298, 0.9862823067232966 0.8332278402522206" stroke="#000000" stroke-width="4" fill="none"></path></g><g transform="translate(260 42.5) rotate(0 19.5 20)"><path d="M1.0378681365400553 -1.0671810749918222 L37.10232906974852 1.5265258308500051 L37.92838096059859 39.877349054440856 L-0.4837930854409933 38.82397267781198" stroke="none" stroke-width="0" fill="#868e9655"></path><path d="M-0.03580608405172825 -0.395483260974288 C15.11112039750442 1.6025866871792824, 27.682216419465842 1.597519040675834, 39.0946302767843 -0.10190934501588345 M0.2572873504832387 -0.4823048235848546 C13.795173875149338 -0.48843810611404476, 26.307148114964363 -0.596472806269303, 38.10151064116508 -0.9798403205350041 M37.052941834554076 1.5552957598119974 C38.383754438906905 12.08155713789165, 38.525410182029006 26.457483204081655, 38.12909314595163 40.45524823106825 M39.45722043234855 0.48748989682644606 C38.67402284350246 9.764205156825483, 38.50420691575855 21.15428082179278, 38.30528607685119 39.46421568375081 M38.24855277501047 38.89100253023207 C30.177582524809985 41.48117069679312, 20.886128494702277 38.21566222387366, 1.3377408143132925 38.08684771694243 M39.32883491832763 39.19034259300679 C29.786325201112774 38.91753665522672, 21.521675171703098 40.429865190545094, 0.6143671842291951 40.11834992747754 M-1.965147579088807 40.361209804192185 C-0.1849532082676888 23.256491666659713, -0.6000563457608223 10.335544662550092, 1.9446333404630423 1.3959774915128946 M0.031096872873604298 39.07715048175305 C-1.0386678772047162 25.441862321458757, -0.33772765565663576 12.068311030976474, 0.8332278402522206 0.7410768149420619" stroke="#000000" stroke-width="4" fill="none"></path></g><g transform="translate(157.5 46.5) rotate(0 11.5 23)"><text x="11.5" y="32" font-family="Virgil, Segoe UI Emoji" font-size="36px" fill="#000000" text-anchor="middle" style="white-space: pre;" direction="ltr">E</text></g><g transform="translate(211.5 44.5) rotate(0 10.5 23)"><text x="10.5" y="32" font-family="Virgil, Segoe UI Emoji" font-size="36px" fill="#000000" text-anchor="middle" style="white-space: pre;" direction="ltr">F</text></g><g transform="translate(266.5 43.5) rotate(0 14.5 23)"><text x="14.5" y="32" font-family="Virgil, Segoe UI Emoji" font-size="36px" fill="#000000" text-anchor="middle" style="white-space: pre;" direction="ltr">C</text></g><g transform="translate(309.5 41) rotate(0 19.5 20)"><path d="M-0.7908355053514242 1.5793211814016104 L38.412747437134385 0.731537913903594 L39.066642040386796 40.8779315110296 L-1.3680310901254416 39.77124855481088" stroke="none" stroke-width="0" fill="#868e9655"></path><path d="M1.0571759697049856 -1.058766370639205 C8.121373147424311 -0.868094916967675, 16.04211291242391 1.6455981176812202, 37.85288790427148 -0.2479729112237692 M0.3505992563441396 -0.22329701203852892 C7.224156407173723 0.4009119064267725, 15.763817874714732 1.1878547758515925, 39.294618842191994 -0.4538685502484441 M39.24509838782251 -0.8557214196771383 C40.25699977353215 8.817614180967212, 39.98328839018941 17.740272672846913, 39.98921081982553 38.19548379816115 M39.96414088923484 0.044864255003631115 C38.638826992176476 9.259134351275861, 38.706907030008736 15.947482625953853, 38.006363180465996 40.15708427410573 M37.62264749966562 41.81745635904372 C23.337425504717974 40.061368768988174, 9.123467776738103 41.927413945971054, -1.8128302935510874 40.868899995461106 M39.97556021530181 39.267152833752334 C30.624660297948864 40.43913569168188, 20.938949169963596 39.55957656220533, 0.9597657294943929 40.85152842383832 M0.290836488828063 38.96815221942961 C0.036969666182994854 29.259465938434005, 0.42964393347501756 15.524833993986245, 0.038012122735381126 -1.1168234404176474 M-0.45227045100182295 40.453059691004455 C0.040035025589168105 24.52078828867525, -0.5897323029115795 9.39065902959555, 0.588206616230309 -0.6784279467537999" stroke="#000000" stroke-width="4" fill="none"></path></g><g transform="translate(361.5 42) rotate(0 19.5 20)"><path d="M0.5211330410093069 -0.38697743974626064 L39.2120060082525 1.7420243564993143 L40.25771257840097 39.04387199319899 L-1.255016291514039 39.10859232582152" stroke="none" stroke-width="0" fill="#868e9655"></path><path d="M-1.3775780852884054 -1.0717549566179514 C16.250044418219478 0.422107122419402, 29.011389227025212 1.6483594994526356, 38.57277035154402 1.1976393815129995 M-0.900789481587708 -0.0090657202526927 C10.627258459571749 1.3160215485934168, 20.522145809605718 -0.005666060363873848, 39.86229227762669 -0.28946668189018965 M40.229990715160966 0.8818115349858999 C40.52715057656169 7.237841414287686, 40.420001631230114 15.666295228525996, 38.686070734634995 38.320431565865874 M38.33584045153111 0.35443585831671953 C39.610750747658315 16.079792038537562, 37.90458677504212 30.94290170539171, 39.05954213719815 40.15850469190627 M39.257094198837876 38.19407210312784 C28.552556353714316 40.62293257412501, 20.964284759201107 40.00788017210551, 1.7736543361097574 40.068458354100585 M39.9078537998721 39.01077362615615 C25.274947144370525 39.32994897811673, 13.895537612587212 39.426563905170184, 0.15220348816365004 39.01457714755088 M-0.7908355053514242 41.57932118140161 C-0.8225352093577385 26.117580199614167, -0.1686406061053276 11.650016082450747, -1.3680310901254416 -0.22875144518911839 M0.2788430927321315 40.03492927271873 C-0.11934559475630524 23.665737965144217, 0.5497364806011319 9.048618991859257, -0.3072639526799321 0.061740186996757984" stroke="#000000" stroke-width="4" fill="none"></path></g><g transform="translate(319.5 40) rotate(0 11.5 23)"><text x="11.5" y="32" font-family="Virgil, Segoe UI Emoji" font-size="36px" fill="#000000" text-anchor="middle" style="white-space: pre;" direction="ltr">E</text></g><g transform="translate(368.5 40) rotate(0 11.5 23)"><text x="11.5" y="32" font-family="Virgil, Segoe UI Emoji" font-size="36px" fill="#000000" text-anchor="middle" style="white-space: pre;" direction="ltr">E</text></g><g transform="translate(147 10) rotate(0 133 10.5)"><text x="133" y="14" font-family="Virgil, Segoe UI Emoji" font-size="16px" fill="#000000" text-anchor="middle" style="white-space: pre;" direction="ltr">Say we just played this sequence:</text></g><g transform="translate(86.5 100) rotate(0 188.5 10.5)"><text x="188.5" y="14" font-family="Virgil, Segoe UI Emoji" font-size="16px" fill="#000000" text-anchor="middle" style="white-space: pre;" direction="ltr">and the next sequence has a transparent note</text></g><g transform="translate(149.75 143.25) rotate(0 18 20.5)"><path d="M-0.43297517858445644 -0.14484545029699802 L36.165268713608384 1.6860745903104544 L36.506548875942826 40.62079063616693 L-0.81520158611238 42.40423676930368" stroke="none" stroke-width="0" fill="#868e9655"></path><path d="M0.957849120721221 0.3349063340574503 C11.697479893267156 0.6672784723713994, 25.239209893718364 1.1754859723523259, 34.055784260854125 -1.2379443105310202 M0.48428329546004534 0.838955151848495 C8.546470321528615 0.5138022845983505, 19.08909271899611 -0.43461022317409514, 35.58425914961845 -0.22658876795321703 M35.4313321467489 1.8340557161718607 C35.844109357027335 12.125432280544194, 37.97590792241506 25.84166884552688, 37.38416192494333 39.88027893938124 M35.46377265173942 -0.23032788652926683 C35.7989060162846 15.916909099463375, 36.61229016178287 33.06959633417428, 35.55831351596862 40.35172932129353 M35.303670382127166 40.47301566042006 C29.56509876027703 39.7549697297439, 18.921473046019674 39.18828327830881, 1.1474665757268667 42.35907691158354 M36.10175981838256 41.048193144612014 C25.528405277989805 40.32539563916624, 14.770508081652224 41.607697929367426, 0.39011496026068926 40.2392467437312 M-0.7225604895502329 42.2826089207083 C0.6669130007643254 29.0885897426866, 0.15015581053681676 17.71603701058775, -0.21149172820150852 -0.9172120150178671 M-0.30216414015740156 41.23479046206921 C-0.5625550235901027 26.63439783332869, 0.7143587087001653 11.656581918150184, -0.47523764055222273 -0.1961470963433385" stroke="#000000" stroke-width="4" fill="none"></path></g><g transform="translate(203.75 142.25) rotate(0 17.5 21)"><path d="M-0.14484545029699802 0.16526871360838413 L36.686074590310454 0.5065488759428263 L34.62079063616693 41.18479841388759 L1.4042367693036795 41.91309105791149" stroke="none" stroke-width="0" fill="#868e9655"></path><path d="M0.3349063340574503 -1.7363487128168344 C11.153576668817552 -1.79607091457583, 22.104077219031755 -2.1118393352720886, 33.76205568946898 -0.8098136428743601 M0.838955151848495 -0.7958651212975383 C13.894608267117293 0.23492267993278804, 26.04607417993248 -0.585240003792569, 34.77341123204678 0.33358213026076555 M36.83405571617186 -0.2965246681123972 C33.21704203048721 15.875915130414059, 33.26559186140075 29.46544439122079, 33.88027893938124 43.94468287192282 M34.76967211347073 -0.15741065423935652 C35.04211702177301 12.808485725894561, 35.90820436904207 23.863337985239905, 34.35172932129353 41.326068160124095 M34.47301566042006 43.93894413672385 C21.045873067807406 41.54730611578559, 7.75263588596135 43.025608892599095, 1.3590769115835428 42.00159904919562 M35.048193144612014 42.33128356654194 C21.810559032019228 42.411880595190425, 10.514379806816578 42.42573089669456, -0.7607532562687993 41.67956664878872 M1.2826089207082987 42.81521151028571 C-0.8405243274010719 28.179298856668154, -1.2268537994660438 13.550197345018375, -0.9172120150178671 1.2588230725377798 M0.2347904620692134 41.57039454299954 C0.21941899312660118 28.885385885834673, 0.12219037665054222 13.600917580537487, -0.1961470963433385 -0.21648758929222822" stroke="#000000" stroke-width="4" fill="none"></path></g><g transform="translate(259.75 142.25) rotate(0 19.5 20)"><path d="M0.16526871360838413 1.6860745903104544 L39.506548875942826 -0.3792093638330698 L38.18479841388762 41.40423676930368 L-0.08690894208848476 40.81845644675195" stroke="none" stroke-width="0" fill="#868e9655"></path><path d="M-1.7363487128168344 0.7112836185842752 C10.54827509885654 1.1541843834239989, 22.409229095466436 -1.303251045672223, 38.19018635712564 1.4856448117643595 M-0.7958651212975383 0.7947298465296626 C15.147803754266352 -0.4808751704636961, 29.071022991463543 -0.5537812771741301, 39.333582130260766 0.34300981741398573 M38.7034753318876 -1.5422544535249472 C40.72154032662511 8.213880939409137, 40.27042835429311 18.295450063422322, 40.94468287192285 39.78691058792174 M38.84258934576064 -0.3696907879784703 C39.441482551954685 16.41837569978088, 38.34382257666439 31.19568760227412, 38.32606816012412 40.63615735154599 M40.938944136723876 38.77242379821837 C27.158249540720135 38.10297540056519, 17.125638059340417 41.256314965365455, 0.0015990491956472397 41.18770372308791 M39.33128356654197 39.389040547423065 C28.365751164872197 40.69013816402294, 17.369087972491975 39.25804207012989, -0.32043335121124983 40.361703681759536 M0.8152115102857351 39.074813002720475 C0.4429664179682732 27.494794672355056, -0.06697963029146192 16.695410268381238, 1.2588230725377798 0.6485344711691141 M-0.4296054570004344 40.51498513203114 C0.9681739313527942 25.6028409069404, -0.3543719844892621 10.174021686427292, -0.21648758929222822 -0.07242272514849901" stroke="#000000" stroke-width="4" fill="none"></path></g><g transform="translate(157.25 143.25) rotate(0 10.5 23)"><text x="10.5" y="32" font-family="Virgil, Segoe UI Emoji" font-size="36px" fill="#000000" text-anchor="middle" style="white-space: pre;" direction="ltr">F</text></g><g transform="translate(266.25 143.25) rotate(0 14.5 23)"><text x="14.5" y="32" font-family="Virgil, Segoe UI Emoji" font-size="36px" fill="#000000" text-anchor="middle" style="white-space: pre;" direction="ltr">C</text></g><g transform="translate(309.25 140.75) rotate(0 19.5 20)"><path d="M-0.3792093638330698 -0.81520158611238 L40.40423676930368 -0.08690894208848476 L39.81845644675195 39.71114116348326 L0.4951025005429983 39.09280371107161" stroke="none" stroke-width="0" fill="#868e9655"></path><path d="M1.2194911185652018 -1.944215739145875 C7.076175699476153 -0.49226641577668484, 18.113884831778705 1.8782559044938534, 39.96856659092009 1.67791030369699 M-0.15368266124278307 -0.4157408503815532 C8.369537258986384 0.1758576152566821, 17.535261871293187 -0.7308281244989484, 38.71566607337445 0.9170278580859303 M37.5062953773886 1.384161924943328 C37.57182804867625 13.351633535698056, 38.47845969721675 24.774890897795558, 37.92754530347884 39.539344226941466 M39.49639655929059 -0.4416864840313792 C38.20385300610214 10.696425543166699, 39.4882810363546 22.692231242544953, 38.65183519106358 39.73650783021003 M37.20573734678328 41.14746657572687 C24.878135844971982 39.93708598998375, 9.225821589864786 39.581904117139054, 0.2035196367651224 40.09638628922403 M39.67134283762425 40.39011496026069 C25.247240834217518 39.826309865703806, 13.37769186273217 39.94516543149017, -0.36128024477511644 40.64130446035415 M-1.3115164693444967 39.78850827179849 C-0.7321746155619622 27.62840005196631, 0.833571870625019 14.146611763164401, -0.6043282803148031 0.4695809241384268 M0.41775651555508375 39.52476235944778 C-0.4021411491557956 29.50193423870951, -0.2784167779609561 19.519478012807667, 0.8430372951552272 0.25327443797141314" stroke="#000000" stroke-width="4" fill="none"></path></g><g transform="translate(361.25 141.75) rotate(0 19.5 20)"><path d="M-0.81520158611238 1.4042367693036795 L38.913091057911515 0.8184564467519522 L38.71114116348326 40.495102500543 L-0.9071962889283895 40.72793713770807" stroke="none" stroke-width="0" fill="#868e9655"></path><path d="M-1.944215739145875 -1.2379443105310202 C12.277189413364978 1.2478440436441451, 27.734714789874854 0.7307658227998763, 40.67791030369699 -1.5917302425950766 M-0.4157408503815532 -0.22658876795321703 C15.13302853172645 0.4029460552986711, 29.025789193436506 -0.2243976887408644, 39.91702785808593 -0.1482623340561986 M40.38416192494333 -1.1197210606187582 C41.31173765137792 8.702401680871844, 41.328044349700214 16.75852748937905, 38.539344226941466 39.68517869152129 M38.55831351596862 -0.6482706787064672 C38.58845755662769 11.157394199632108, 39.213905872963366 20.69430888723582, 38.73650783021003 40.96947206836194 M40.14746657572687 41.35907691158354 C29.695372642669824 40.83782250571065, 20.033964363299308 39.85363841938786, 0.09638628922402859 40.66256713308394 M39.39011496026069 39.2392467437312 C29.362308513838798 40.623527388433, 20.163905944675207 39.900543461898344, 0.6413044603541493 40.40760575514287 M-0.21149172820150852 39.08278798498213 C1.1991322085261344 30.498908465728164, 1.3477669402956962 19.096419708803296, 0.4695809241384268 -0.8592109140008688 M-0.47523764055222273 39.80385290365666 C-0.5554108994081617 25.86763674672693, -0.2562889533117414 12.723156238906082, 0.25327443797141314 -0.1896046819165349" stroke="#000000" stroke-width="4" fill="none"></path></g><g transform="translate(209.25 142.75) rotate(0 11.5 23)"><text x="11.5" y="32" font-family="Virgil, Segoe UI Emoji" font-size="36px" fill="#000000" text-anchor="middle" style="white-space: pre;" direction="ltr">E</text></g><g transform="translate(368.25 139.75) rotate(0 11.5 23)"><text x="11.5" y="32" font-family="Virgil, Segoe UI Emoji" font-size="36px" fill="#000000" text-anchor="middle" style="white-space: pre;" direction="ltr">E</text></g><g transform="translate(314.25 145.25) rotate(0 13 18)"><text x="13" y="25" font-family="Virgil, Segoe UI Emoji" font-size="28px" fill="#ff0000" text-anchor="middle" style="white-space: pre;" direction="ltr">T</text></g><g transform="translate(158.75 246.75) rotate(0 18 20.5)"><path d="M-0.11808856762945652 -0.2532480414956808 L35.46378896199167 0.5569842997938395 L34.189135348424315 40.75240379013121 L0.2833534236997366 42.753115409985185" stroke="none" stroke-width="0" fill="#868e9655"></path><path d="M-0.03297794423997402 0.1216535922139883 C12.647419784963132 -1.6819960697367788, 23.85552175305784 -0.3148001654818654, 35.15527599491179 0.3275503870099783 M0.7776742456480861 -0.8864883212372661 C9.654762001521886 -0.7480573982000351, 17.946327105723324 -0.5102576643228531, 36.11224819999188 0.33286180812865496 M35.993053609505296 0.6907844301313162 C37.03265309137292 9.202776817139238, 36.74290412467904 21.277000267989933, 36.73141168989241 42.97368279658258 M35.66287614684552 0.6944843800738454 C35.496596570825204 12.516159302648157, 35.25592389306985 22.571992741152645, 36.03988765459508 40.41697495896369 M34.942465061321855 40.73097506724298 C24.22379199489951 41.64875932935625, 8.464585862681268 39.16329791549593, 0.10403519310057163 42.88280615769327 M36.200386512093246 41.85732525307685 C23.462422851659355 40.58936347104609, 10.082234879396854 40.619306072965266, 0.4113089619204402 41.29490086156875 M-1.5953270848840475 40.96628556214273 C0.7002808949630708 32.48561992803589, 1.290349890915677 22.852219537459312, -1.908921366557479 -1.54328509606421 M0.07743068318814039 40.65650817472488 C-0.9415611773636192 29.382106536347415, -0.4064140766765922 16.993291636556382, 0.5338546512648463 -0.30212879460304976" stroke="#000000" stroke-width="4" fill="none"></path></g><g transform="translate(212.75 245.75) rotate(0 17.5 21)"><path d="M-0.2532480414956808 -0.5362110380083323 L35.55698429979384 -1.8108646515756845 L34.75240379013121 42.28335342369971 L1.7531154099851847 42.63395539484915" stroke="none" stroke-width="0" fill="#868e9655"></path><path d="M0.1216535922139883 0.34054976142942905 C5.7970258998684585 -0.7524471537675709, 14.283713744021952 -0.8389528648462147, 35.32755038700998 -0.8152686413377523 M-0.8864883212372661 0.3222455559298396 C6.408204763662071 -0.9908917714376002, 13.938978971913459 -0.15993778598494823, 35.332861808128655 -0.42765982169657946 M35.690784430131316 0.855226868763566 C33.28862223735079 14.983014816604546, 34.816250957157465 29.56648551896213, 36.97368279658258 41.64227383770046 M35.694484380073845 -0.544489455409348 C35.62535255631432 12.235719111189239, 34.11452462753281 26.081650143302962, 34.41697495896369 42.79824413638559 M34.73097506724298 43.897470885887714 C25.167656541336328 41.62687503038903, 12.032718981616195 41.91896657883187, 1.8828061576932669 42.936038011684985 M35.85732525307685 41.947291272692354 C25.088015551213175 41.122107000695515, 15.5089495703578 42.48144424115305, 0.29490086156874895 41.15948878508058 M-0.03371443785727024 42.57037019170818 C0.728338245693594 31.891231757588663, -0.05115812605246928 17.55266377329825, -1.54328509606421 0.08512788452208042 M-0.3434918252751231 41.30610214453188 C0.6761096461303533 26.704210337996464, 0.7618069096095861 12.259776836819938, -0.30212879460304976 -0.05904428381472826" stroke="#000000" stroke-width="4" fill="none"></path></g><g transform="translate(268.75 245.75) rotate(0 19.5 20)"><path d="M-0.5362110380083323 0.5569842997938395 L37.189135348424315 -0.24759620986878872 L39.28335342369974 41.753115409985185 L0.6339553948491812 41.66086476482451" stroke="none" stroke-width="0" fill="#868e9655"></path><path d="M0.34054976142942905 -1.3224660400301218 C14.836690361145884 0.021007413743063807, 30.34509330522269 0.3038279365282506, 38.18473135866225 -1.8325860146433115 M0.3222455559298396 -0.8847697107121348 C9.500244162324817 -0.30123953155241906, 20.550148095563056 0.6785922534111888, 38.57234017830342 0.4327468844130635 M39.855226868763566 -1.343817913904786 C39.56408862397075 8.683240817859769, 39.73002241179347 18.972542820498347, 38.642273837700486 40.20041964016855 M38.45551054459065 0.9494979353621602 C38.0799883255735 8.351571158505976, 38.90503811333328 17.242777262814343, 39.79824413638562 40.04270747024566 M40.89747088588774 40.817132687196136 C28.93598835458979 38.279211411448195, 19.352124612964687 41.83034629580565, 0.9360380116850138 39.49086204729974 M38.94729127269238 39.697024133987725 C27.518295569997278 40.06132358460687, 18.34395665898919 40.62925771026872, -0.8405112149193883 39.68314462620765 M0.5703701917082071 40.33952394686639 C1.4795046046376228 31.26302089728415, -1.5898559495806694 21.86270154826343, 0.08512788452208042 1.2081137653440237 M-0.6938978554680943 40.856618699617684 C-0.18972302805632352 27.223182120360434, 0.5028823779895901 12.259603519923985, -0.05904428381472826 -0.1266240207478404" stroke="#000000" stroke-width="4" fill="none"></path></g><g transform="translate(166.25 246.75) rotate(0 10.5 23)"><text x="10.5" y="32" font-family="Virgil, Segoe UI Emoji" font-size="36px" fill="#000000" text-anchor="middle" style="white-space: pre;" direction="ltr">F</text></g><g transform="translate(275.25 246.75) rotate(0 14.5 23)"><text x="14.5" y="32" font-family="Virgil, Segoe UI Emoji" font-size="36px" fill="#000000" text-anchor="middle" style="white-space: pre;" direction="ltr">C</text></g><g transform="translate(318.25 244.25) rotate(0 19.5 20)"><path d="M-0.24759620986878872 0.2833534236997366 L40.753115409985185 0.6339553948491812 L40.66086476482451 39.6030628439039 L-0.5534619148820639 39.83990672789514" stroke="none" stroke-width="0" fill="#868e9655"></path><path d="M0.04472986422479153 -0.8447240050882101 C12.691622421797366 -0.6674160740058869, 22.895558054931463 -0.6116602799575775, 40.55534849129617 -1.7729766424745321 M-0.6469699768349528 0.11224819999188185 C13.28961947625503 -0.14736456536687909, 26.346262220665814 -0.5948472406808287, 38.99652680475265 0.3453922150656581 M39.183810805901885 0.7314116898924112 C40.704919213801624 13.352727575227618, 38.93165605738759 25.877358051016927, 38.32575229369104 41.38896876014769 M38.43867000658065 0.03988765459507704 C38.796774133108556 10.620286314748228, 39.42250664439052 19.176380584947765, 38.47123253066093 39.86548753362149 M37.331671273335814 40.10403519310057 C25.482737930212167 40.89936702239327, 7.690725592337547 39.365214216588065, 0.40077302418649197 41.7146505061537 M38.7269667359069 40.41130896192044 C27.800464898068455 38.789757756451145, 15.694272699207065 38.70452064082958, -0.7976635424420238 39.983142781071365 M-0.43997242487967014 38.09107863344252 C-1.6111898854374886 26.944387501105666, 1.140208975970745 14.57808615453541, 0.15486136637628078 -0.6869836505502462 M0.9423159630969167 40.533854651264846 C-0.6447762744501233 30.71654713805765, -0.46927150059491396 21.28307732474059, 0.2784921498969197 -0.9054323257878423" stroke="#000000" stroke-width="4" fill="none"></path></g><g transform="translate(370.25 245.25) rotate(0 19.5 20)"><path d="M0.2833534236997366 1.7531154099851847 L39.63395539484918 1.6608647648245096 L38.6030628439039 39.446538085117936 L-0.16009327210485935 40.137662226334214" stroke="none" stroke-width="0" fill="#868e9655"></path><path d="M-0.8447240050882101 0.3275503870099783 C8.30592258060351 -1.8413083381671458, 17.482869596593083 1.5466261677723379, 37.22702335752547 0.6444911118596792 M0.11224819999188185 0.33286180812865496 C7.821738306526095 0.6850651753786952, 15.62365375943482 0.2488450957182795, 39.34539221506566 0.427613434381783 M39.73141168989241 1.9736827965825796 C38.75536941811443 9.512783812358975, 37.5695461563766 17.950480638071895, 40.38896876014769 38.911021089181304 M39.03988765459508 -0.5830250410363078 C39.48417928311974 15.840699211694302, 38.218231374956666 31.067216013558212, 38.86548753362149 40.94873544294387 M39.10403519310057 41.88280615769327 C26.64262927165255 39.16553794560023, 11.815067725814878 40.07544892248698, 1.7146505061537027 39.894582545384765 M39.41130896192044 40.29490086156875 C27.641094662528484 39.57666165321134, 17.03746342435479 39.095853484561665, -0.01685721892863512 40.285185095854104 M-1.908921366557479 38.45671490393579 C-0.14695995301008224 28.529065871611238, 0.6274790838360786 14.796765578910708, -0.6869836505502462 -1.3877957109361887 M0.5338546512648463 39.69787120539695 C0.0044560180976986885 24.446901180781424, -0.20460521709173918 9.425542552955445, -0.9054323257878423 -0.12379810493439436" stroke="#000000" stroke-width="4" fill="none"></path></g><g transform="translate(218.25 246.25) rotate(0 11.5 23)"><text x="11.5" y="32" font-family="Virgil, Segoe UI Emoji" font-size="36px" fill="#000000" text-anchor="middle" style="white-space: pre;" direction="ltr">E</text></g><g transform="translate(377.25 243.25) rotate(0 11.5 23)"><text x="11.5" y="32" font-family="Virgil, Segoe UI Emoji" font-size="36px" fill="#000000" text-anchor="middle" style="white-space: pre;" direction="ltr">E</text></g><g transform="translate(325.5 245) rotate(0 11.5 23)"><text x="11.5" y="32" font-family="Virgil, Segoe UI Emoji" font-size="36px" fill="#000000" text-anchor="middle" style="white-space: pre;" direction="ltr">E</text></g><g transform="translate(51 203.5) rotate(0 236 10.5)"><text x="236" y="14" font-family="Virgil, Segoe UI Emoji" font-size="16px" fill="#000000" text-anchor="middle" style="white-space: pre;" direction="ltr">it would turn into, this taking the note from the same spot</text></g><g transform="translate(10 306) rotate(0 268 41.5)"><text x="268" y="14.75" font-family="Virgil, Segoe UI Emoji" font-size="16px" fill="#000000" text-anchor="middle" style="white-space: pre;" direction="ltr">This does have problems.</text><text x="268" y="35.5" font-family="Virgil, Segoe UI Emoji" font-size="16px" fill="#000000" text-anchor="middle" style="white-space: pre;" direction="ltr">If the original sequence is longer, fine</text><text x="268" y="56.25" font-family="Virgil, Segoe UI Emoji" font-size="16px" fill="#000000" text-anchor="middle" style="white-space: pre;" direction="ltr">if the new sequence is longer what should happen?</text><text x="268" y="77" font-family="Virgil, Segoe UI Emoji" font-size="16px" fill="#000000" text-anchor="middle" style="white-space: pre;" direction="ltr">Should the note taken be the note if that sequence had repeated </text></g><g transform="translate(28 455.25) rotate(0 18 20.5)"><path d="M1.586059683933854 0.6870031710714102 L34.33007078804076 -1.1529904846102 L35.99631738103926 39.23630014620721 L0.444357568398118 42.5841841455549" stroke="none" stroke-width="0" fill="#868e9655"></path><path d="M0.5696507450193167 1.6111128274351358 C12.046129108965397 -0.4975960336253047, 28.12206998206675 2.012335709519684, 36.99957135878503 -1.6909400876611471 M-0.48780480306595564 -0.8256487967446446 C11.042783655039967 0.5061113971471787, 23.479344593919816 0.26032797873020175, 35.39625155646354 0.45888205152004957 M37.49023154936731 -1.0328804906457663 C38.199463096288966 14.082987360004337, 38.02021124663763 28.56853943001479, 35.49428508244455 41.6352146808058 M36.68402921874076 0.7744178352877498 C36.02865318530239 10.044170142058283, 36.088993202382696 17.835241838172077, 36.65225019771606 41.769293951801956 M36.88437459431589 42.64604222215712 C23.186054990440606 42.07862135823816, 10.5362945754081 40.72166696246713, -1.1732421759516 39.42692464031279 M35.45747628528625 40.83776705246419 C29.510626929067076 40.78976791165769, 21.47664702627808 41.03788288496435, 0.9200486512854695 40.66844620089978 M-0.3422194365411997 41.72557871975005 C0.5771929971594363 31.98097114851698, 2.0570025793928655 21.346404241956765, 0.14292464219033718 -0.8845968302339315 M0.9055649610236287 41.52623357158154 C0.1631152687873691 30.107733886223286, 0.04098877890966829 17.405805055052042, -0.8318167058750987 -0.6242092968896031" stroke="#000000" stroke-width="4" fill="none"></path></g><g transform="translate(82 454.25) rotate(0 17.5 21)"><path d="M0.6870031710714102 -1.6699292119592428 L33.8470095153898 -0.003682618960738182 L33.23630014620721 42.44435756839809 L1.5841841455549002 40.15289008058605" stroke="none" stroke-width="0" fill="#868e9655"></path><path d="M1.6111128274351358 -1.9727068785578012 C10.386220153886825 -0.015290873358026147, 23.816106914542615 0.8998824784066528, 33.30905991233885 0.6310285087674856 M-0.8256487967446446 -0.893067660741508 C11.890955098439008 -0.22162635657005014, 22.805178431794047 -0.43301676246337595, 35.45888205152005 0.6955089243128896 M33.967119509354234 1.8258360382169485 C34.20974828639999 18.07398332003503, 33.5437137667276 32.349083345383384, 35.6352146808058 40.44785717688498 M35.77441783528775 -0.0766728250309825 C36.12258687326685 13.662616566196077, 34.795551356766374 28.01014894600956, 35.769293951801956 42.58834743220356 M36.64604222215712 42.104105746373506 C25.37233354849741 42.52716164127921, 13.099229504354295 40.98152337805365, -1.5730753596872091 40.07931253872809 M34.83776705246419 42.85338949877766 C27.097270844038576 41.97228886554946, 19.4781611636281 42.730165351135625, -0.3315537991002202 41.56656363327053 M0.7255787197500467 42.41038105450568 C1.2777825621329248 32.99899590294806, 1.1661265519820154 20.360535174608216, -0.8845968302339315 -0.373592222109437 M0.5262335715815425 41.8207338126376 C0.6370242644660176 32.60592955648897, -0.5307686220295726 22.982827761583014, -0.6242092968896031 0.793029841966927" stroke="#000000" stroke-width="4" fill="none"></path></g><g transform="translate(138 454.25) rotate(0 19.5 20)"><path d="M-1.6699292119592428 -1.1529904846102 L38.99631738103926 -1.7636998537927866 L39.44435756839812 41.5841841455549 L-1.8471099194139242 38.15707997046411" stroke="none" stroke-width="0" fill="#868e9655"></path><path d="M-1.9727068785578012 -0.5337348636239767 C11.392894015368075 1.6620298781711607, 23.616563375480474 -2.0051070890109988, 39.631028508767486 0.377146715298295 M-0.893067660741508 0.7309483466669917 C13.74337558215484 0.8071679589804261, 27.66771879605949 0.7808850822504609, 39.69550892431289 0.9112855074927211 M40.82583603821695 -1.0685992296785116 C40.944630498439075 12.916294975206256, 38.79233139231801 29.937072129920125, 37.44785717688501 40.51378541626036 M38.92332717496902 0.926062929444015 C39.25727887954563 13.470684020780029, 39.92586188521236 28.51260716747493, 39.58834743220359 40.11889989953488 M39.104105746373534 41.28848319686949 C29.94589933911338 40.252507034419104, 18.973764327727256 38.74790287363343, -1.920687461271882 38.49555694498122 M39.85338949877769 39.964495497755706 C29.3550543484278 40.149339621523396, 20.305813016742466 39.60517535136081, -0.4334363667294383 39.593141603283584 M0.41038105450570583 41.503882044926286 C1.9586345240473748 27.238897627219558, 0.2113685294985771 10.808746354654431, -0.373592222109437 -1.6701534446328878 M-0.17926618736237288 40.64186983089894 C-0.6636186616495252 27.427928692661226, -1.1940426902845502 15.283494199626144, 0.793029841966927 0.3435015855357051" stroke="#000000" stroke-width="4" fill="none"></path></g><g transform="translate(35.5 458.25) rotate(0 11.5 23)"><text x="11.5" y="32" font-family="Virgil, Segoe UI Emoji" font-size="36px" fill="#000000" text-anchor="middle" style="white-space: pre;" direction="ltr">E</text></g><g transform="translate(89.5 456.25) rotate(0 10.5 23)"><text x="10.5" y="32" font-family="Virgil, Segoe UI Emoji" font-size="36px" fill="#000000" text-anchor="middle" style="white-space: pre;" direction="ltr">F</text></g><g transform="translate(144.5 455.25) rotate(0 14.5 23)"><text x="14.5" y="32" font-family="Virgil, Segoe UI Emoji" font-size="36px" fill="#000000" text-anchor="middle" style="white-space: pre;" direction="ltr">C</text></g><g transform="translate(187.5 452.75) rotate(0 19.5 20)"><path d="M0.444357568398118 1.5841841455549002 L37.152890080586076 -1.8429200295358896 L39.407254273071885 38.571015452966094 L1.486930126324296 39.6041278000921" stroke="none" stroke-width="0" fill="#868e9655"></path><path d="M0.9995713587850332 -1.6909400876611471 C11.290245524700733 -0.008211676208302432, 22.567528195865457 -1.3609679976385087, 37.34870240651071 -1.786135321483016 M-0.6037484435364604 0.45888205152004957 C15.246207476314158 0.7220711854752153, 29.764129285141827 0.5559014526661485, 38.48355975467712 0.9129180191084743 M38.49428508244455 0.6352146808058023 C37.77717401459813 10.376586956903338, 40.265145141631365 21.093661518767476, 40.5488356705755 39.846654349938035 M39.65225019771606 0.7692939518019557 C39.58181430902332 15.823151617310941, 38.41051732506603 31.850690732710063, 39.82302111107856 40.05205287318677 M37.8267578240484 38.42692464031279 C22.866770304832606 38.482205061195415, 9.604206720553336 38.90160068678669, -0.3244658950716257 41.706778997555375 M39.92004865128547 39.66844620089978 C27.005031192023306 39.6760596869979, 16.415267219394444 39.91180836544372, 0.36278935987502337 40.20519052725285 M0.14292464219033718 39.11540316976607 C-0.7516303494572639 23.32208246551454, -0.35496400147676466 11.795601742342111, 1.052467143163085 -0.35853237472474575 M-0.8318167058750987 39.3757907031104 C0.9135869128629566 25.776022261939943, -0.7144075350835919 10.288546110503376, -0.001841309480369091 -0.8818499268963933" stroke="#000000" stroke-width="4" fill="none"></path></g><g transform="translate(239.5 453.75) rotate(0 19.5 20)"><path d="M1.5841841455549002 -1.8471099194139242 L37.15707997046411 0.4072542730718851 L37.571015452966094 41.486930126324296 L-0.3958721999078989 38.85303824581206" stroke="none" stroke-width="0" fill="#868e9655"></path><path d="M-1.6909400876611471 0.6310285087674856 C12.241722828987987 1.0541777490358801, 22.753542621247473 -1.8462140084523706, 37.213864678516984 1.4618966933339834 M0.45888205152004957 0.6955089243128896 C11.081089160684497 0.8981940741185099, 21.084723081067207 -0.28097835234366353, 39.912918019108474 -0.5342996148392558 M39.6352146808058 -1.5521428231149912 C39.16685866639018 16.228996681049466, 40.021131687611344 32.13517242483795, 38.846654349938035 41.85212585888803 M39.769293951801956 0.5883474322035909 C38.958510864712295 11.351719216443598, 39.28179826233536 24.692358647473156, 39.05205287318677 40.644241598434746 M37.42692464031279 38.07931253872812 C25.069384574797002 38.800508964033796, 13.062607830204065 39.44675188061781, 1.706778997555375 39.92899099551141 M38.66844620089978 39.56656363327056 C26.2606701570563 40.897151075890285, 14.163947389274831 40.721608333876354, 0.20519052725285292 40.75194102246314 M-0.8845968302339315 39.62640777789056 C-1.9485986515879632 24.242692852392793, 1.532684715092182 9.491704596206546, -0.35853237472474575 1.2837396617978811 M-0.6242092968896031 40.79302984196693 C0.5538708077743649 28.370606102980673, -0.3661260200664401 18.409300108440217, -0.8818499268963933 0.222178784199059" stroke="#000000" stroke-width="4" fill="none"></path></g><g transform="translate(197.5 451.75) rotate(0 11.5 23)"><text x="11.5" y="32" font-family="Virgil, Segoe UI Emoji" font-size="36px" fill="#000000" text-anchor="middle" style="white-space: pre;" direction="ltr">E</text></g><g transform="translate(246.5 451.75) rotate(0 11.5 23)"><text x="11.5" y="32" font-family="Virgil, Segoe UI Emoji" font-size="36px" fill="#000000" text-anchor="middle" style="white-space: pre;" direction="ltr">E</text></g><g transform="translate(305.75 452.25) rotate(0 18 20.5)"><path d="M-1.7961460407823324 -1.7655346039682627 L35.87913184799254 1.5734344478696585 L35.25423311628401 42.0867561455816 L-1.1940966304391623 40.76155207119882" stroke="none" stroke-width="0" fill="#868e9655"></path><path d="M-1.1529904846102 -0.003682618960738182 C11.891207577288151 0.7449448265507816, 28.893999007716776 -1.5465226612612606, 34.15707997046411 0.4072542730718851 M-0.5734808770939708 -0.4954182030633092 C7.8957477463409305 0.23424639165401456, 16.116774045862257 -0.08172364175319674, 35.47163581568748 -0.6675409497693181 M35.556980883702636 -0.975762790068984 C34.75239478531294 10.67589675569907, 36.32998650255613 19.342015911452474, 35.08937761746347 40.34697257913649 M35.275007960386574 -0.09074417967349291 C36.09001018398441 14.922990716341884, 35.5641037105862 30.704016681388023, 36.54308321792632 40.17001252155751 M36.89847347699106 39.21320783533156 C28.127478120476006 40.66075870927423, 16.186047812178728 42.226526176296176, 0.6033307667821646 40.379443341866136 M36.09339597541839 41.317129421047866 C23.357084005139768 40.21025297902524, 11.293529183603823 39.96752704046666, 0.26414781529456377 41.679192083887756 M-0.07437452115118504 42.86748951114714 C1.9643576483149081 30.749772587325424, -1.0309227963071317 24.214996718801558, 1.7433119770139456 -0.5875575598329306 M-0.557007017545402 41.714256065897644 C-0.525423422018066 32.099789385776965, -0.7467358554992825 24.908802739530802, -0.7833527652546763 0.7786683915182948" stroke="#000000" stroke-width="4" fill="none"></path></g><g transform="translate(359.75 451.25) rotate(0 17.5 21)"><path d="M-1.7655346039682627 -0.1208681520074606 L36.57343444786966 -0.7457668837159872 L36.0867561455816 40.80590336956081 L-0.23844792880117893 43.880028838291736" stroke="none" stroke-width="0" fill="#868e9655"></path><path d="M-0.003682618960738182 -1.7636998537927866 C12.146613117773086 1.7859574803616851, 21.55740117933601 -1.6411466947291047, 35.407254273071885 -1.428984547033906 M-0.4954182030633092 -0.33208006899803877 C13.26511711673811 -0.13816327783279123, 26.051274804398417 -0.3276458773296327, 34.33245905023068 -0.8691863147541881 M34.024237209931016 -1.045639419928193 C36.82597747961059 11.063034399785096, 36.75576052585617 20.151541822403658, 34.34697257913649 43.71336749754843 M34.90925582032651 -0.31229701917618513 C33.8145424229838 15.882992247119535, 33.78316501805559 33.98547469731418, 34.17001252155751 41.67442810256031 M33.21320783533156 43.75541928969321 C23.228247366379946 41.599163009086595, 13.177729417569935 42.76056362525557, -0.6205566581338644 43.109555220231385 M35.317129421047866 42.154283401556285 C25.069013891275972 42.92061656783332, 15.481225319206715 42.29683640669097, 0.6791920838877559 41.28108134586361 M1.8674895111471415 43.58619258366522 C-0.5025475641526285 31.864798167161624, 2.315110085364431 26.29108403325079, -0.5875575598329306 -1.9909706953912973 M0.7142560658976436 41.85455694515255 C-0.9606457875855265 25.140762701630575, 0.06687764061614887 8.231683614663773, 0.7786683915182948 -0.8980730203911662" stroke="#000000" stroke-width="4" fill="none"></path></g><g transform="translate(415.75 451.25) rotate(0 19.5 20)"><path d="M-0.1208681520074606 1.5734344478696585 L38.25423311628401 1.086756145581603 L37.80590336956084 39.76155207119882 L1.8800288382917643 38.87205318175256" stroke="none" stroke-width="0" fill="#868e9655"></path><path d="M-1.7636998537927866 0.444357568398118 C10.027822182234377 -1.8463918087165803, 15.044356043823065 0.40797238376922906, 37.571015452966094 1.486930126324296 M-0.33208006899803877 0.16298939567059278 C10.589167625363917 0.04023246145807208, 21.327734236046673 -0.4743278505746275, 38.13081368524581 -0.49259949941188097 M37.95436058007181 1.9395606461912394 C39.443348474055526 12.787599248811604, 38.000773794203994 21.18348369188607, 40.71336749754846 41.96247416175902 M38.687702980823815 -0.889412653632462 C37.871799691580236 8.259734480641782, 39.25308640208095 17.531061599962413, 38.67442810256034 40.3189386902377 M40.755419289693236 39.8445327822119 C28.732815940771253 41.0618757771235, 20.18510234709829 39.03101886975579, 1.1095552202314138 39.34003579057753 M39.15428340155631 39.41407652478665 C30.396016388852146 39.29503106043674, 20.280324640125034 40.802872558096425, -0.7189186541363597 39.077646183781326 M1.5861925836652517 39.10220610536635 C-1.394212956726551 33.68411452136934, 1.7581868812441825 22.94094397313893, -1.9909706953912973 1.8535627666860819 M-0.14544305484741926 39.31829946022481 C-0.14395268131047487 25.689201480709016, -0.5605499582365155 11.465425576083362, -0.8980730203911662 -0.8827673019841313" stroke="#000000" stroke-width="4" fill="none"></path></g><g transform="translate(313.25 455.25) rotate(0 11.5 23)"><text x="11.5" y="32" font-family="Virgil, Segoe UI Emoji" font-size="36px" fill="#000000" text-anchor="middle" style="white-space: pre;" direction="ltr">E</text></g><g transform="translate(367.25 453.25) rotate(0 10.5 23)"><text x="10.5" y="32" font-family="Virgil, Segoe UI Emoji" font-size="36px" fill="#000000" text-anchor="middle" style="white-space: pre;" direction="ltr">F</text></g><g transform="translate(422.25 452.25) rotate(0 14.5 23)"><text x="14.5" y="32" font-family="Virgil, Segoe UI Emoji" font-size="36px" fill="#000000" text-anchor="middle" style="white-space: pre;" direction="ltr">C</text></g><g transform="translate(465.25 449.75) rotate(0 19.5 20)"><path d="M-1.1940966304391623 -0.23844792880117893 L40.880028838291764 -1.1279468182474375 L39.87913637794554 40.79209980927408 L-0.550106531009078 41.807641660794616" stroke="none" stroke-width="0" fill="#868e9655"></path><path d="M-1.8429200295358896 0.4072542730718851 C11.137512711342424 1.8471165606100113, 24.73712231684476 -0.7867753199022263, 38.00916359387338 -0.6641601379960775 M-0.5283641843125224 -0.6675409497693181 C11.466472328361125 -0.43293705069459976, 24.400881175324322 -0.1618471094314009, 38.51211860496551 -0.5228197099640965 M38.08937761746347 -0.6530274208635092 C40.81975795701146 17.841595454141498, 37.696652729064226 30.308258505538106, 38.818511640653014 39.37540596164763 M39.54308321792632 -0.8299874784424901 C38.33914670553058 8.761288075707853, 38.154235067032275 17.333935509435833, 38.10660391766578 40.87770964484662 M39.603330766782165 39.379443341866136 C28.71271629491821 39.61504433917813, 15.073969117365777 40.46180049943737, 0.6342588420957327 40.308566803112626 M39.264147815294564 40.679192083887756 C28.8661828991957 38.75447291241027, 19.229140415042636 39.63963946805335, 0.9337447555735707 40.793096291832626 M1.7433119770139456 39.41244244016707 C-1.7091531231999397 31.649150555953383, 1.6101282760500908 18.4771615434438, 1.4285121317952871 -0.2908861096948385 M-0.7833527652546763 40.778668391518295 C-0.751370825059712 29.84403485711664, 0.08626811932772399 22.24032154213637, -0.3728834418579936 0.5433780727908015" stroke="#000000" stroke-width="4" fill="none"></path></g><g transform="translate(517.25 450.75) rotate(0 19.5 20)"><path d="M-0.23844792880117893 1.8800288382917643 L37.87205318175256 0.8791363779455423 L39.79209980927408 39.44989346899092 L1.8076416607946157 40.67060821689665" stroke="none" stroke-width="0" fill="#868e9655"></path><path d="M0.4072542730718851 -1.428984547033906 C16.276089210156353 -0.03650279414840041, 28.431356413476173 -0.6314670003671199, 38.33583986200392 0.32597879134118557 M-0.6675409497693181 -0.8691863147541881 C9.885762319806965 -0.06437407902441919, 20.53521408028901 -0.28181936315260825, 38.4771802900359 0.9697803230956197 M38.34697257913649 1.713367497548461 C41.33634290024638 11.65416686423123, 37.92388465926051 25.946320829913024, 38.37540596164763 38.221174692735076 M38.17001252155751 -0.32557189743965864 C38.95062266681343 8.13670249376446, 39.08092071507126 16.40097597707063, 39.87770964484662 39.92226639110595 M38.379443341866136 41.109555220231414 C27.728271996881812 38.98529646751471, 17.96326436344534 40.751908341618254, 0.3085668031126261 38.8281530495733 M39.679192083887756 39.28108134586364 C22.914727075677362 39.1619549563434, 8.636974523216484 41.036762403538454, 0.7930962918326259 39.551103052683175 M-0.5875575598329306 38.0090293046087 C1.4695900157094002 32.14648642577231, -1.4979867860674858 23.06486357562244, -0.2908861096948385 -1.3634010795503855 M0.7786683915182948 39.101926979608834 C-1.0210964573547243 29.406587877310812, 0.6483880685642361 18.561160464771092, 0.5433780727908015 -0.5970483152195811" stroke="#000000" stroke-width="4" fill="none"></path></g><g transform="translate(475.25 448.75) rotate(0 11.5 23)"><text x="11.5" y="32" font-family="Virgil, Segoe UI Emoji" font-size="36px" fill="#000000" text-anchor="middle" style="white-space: pre;" direction="ltr">E</text></g><g transform="translate(524.25 448.75) rotate(0 11.5 23)"><text x="11.5" y="32" font-family="Virgil, Segoe UI Emoji" font-size="36px" fill="#000000" text-anchor="middle" style="white-space: pre;" direction="ltr">E</text></g><g><g transform="translate(290 424) rotate(0 0 39.5)"><path d="M0 0 C0 13.166666666666666, 0 65.83333333333333, 0 79" stroke="#000000" stroke-width="1.5" fill="none" stroke-dasharray="12 8"></path></g></g><g transform="translate(250.5 405) rotate(0 34.5 10.5)"><text x="34.5" y="14" font-family="Virgil, Segoe UI Emoji" font-size="16px" fill="#000000" text-anchor="middle" style="white-space: pre;" direction="ltr">(Repeat)</text></g><g transform="translate(25.75 519.75) rotate(0 18 20.5)"><path d="M0.887542063370347 -1.4570590499788523 L34.30259847082198 0.7307850476354361 L35.72503441013396 40.13601157628 L-1.5852013882249594 41.74378899298608" stroke="none" stroke-width="0" fill="#868e9655"></path><path d="M-1.8626213911920786 1.4028257671743631 C7.658070589601994 -0.242872662357986, 16.38937009908259 1.2460267474129796, 35.34185252152383 -1.4369335230439901 M-0.09573155920952559 0.941905396990478 C14.722854585759343 -0.08978747904300688, 28.489008670486513 -1.0312467473745346, 35.29379412252456 0.7360883830115199 M35.608681535348296 -1.3336072023957968 C37.8148747441452 10.41758306110278, 34.93866816732101 24.21149221193046, 35.77773026190698 39.81747251190245 M36.37036725599319 -0.0021859528496861458 C36.131658057803286 8.988447640184313, 35.80794675194658 17.7620278198272, 36.44912957865745 40.93389137368649 M34.90443781577051 41.11780505813658 C20.634164116531608 39.23956133898348, 7.715000875666735 40.63513418015093, 1.2792112585157156 41.80665981210768 M35.926207778044045 40.97565396409482 C29.096078371070327 41.67931376479566, 21.468460751511156 40.95727779053151, -0.5372080532833934 41.43005995731801 M-0.7708237413316965 40.56718217767775 C-0.3619777249079198 29.39109378447756, -1.2960418151598423 19.244174473918974, 0.6035586949437857 -1.618236368522048 M0.41727950889617205 41.499173927120864 C-0.5116051422152668 33.376706750970335, 0.33774683012627066 24.01564075127244, 0.9195285411551595 0.5622101007029414" stroke="#000000" stroke-width="4" fill="none"></path></g><g transform="translate(79.75 518.75) rotate(0 17.5 21)"><path d="M-1.4570590499788523 -1.6974015291780233 L35.730785047635436 -0.27496558986604214 L34.13601157628 40.41479861177501 L0.743788992986083 41.43848043121395" stroke="none" stroke-width="0" fill="#868e9655"></path><path d="M1.4028257671743631 -0.19739272631704807 C9.640160602051765 1.0044022107031196, 21.113512664102018 -0.33218873501755297, 33.56306647695601 1.781909143552184 M0.941905396990478 0.7154181273654103 C7.8868957688100645 0.507641799421981, 14.883906213566663 -0.6726998317521066, 35.73608838301152 -0.27766365092247725 M33.6663927976042 1.4467331524938345 C34.60713489154354 14.941733124293375, 37.23946501115337 32.52014335915444, 33.81747251190245 40.21562204323706 M34.997814047150314 0.48186999280005693 C35.387076168153435 9.170621791854495, 35.518631159160286 18.474055788479735, 34.93389137368649 42.87049922067669 M35.11780505813658 40.567961310967775 C23.02285722596571 41.39087188229893, 14.380845566280186 43.087487876275524, 0.8066598121076822 40.275790249928804 M34.97565396409482 42.792500820942195 C27.63260765140876 42.83547837357034, 18.736051626503468 41.436964669031994, 0.43005995731800795 41.424199697561534 M-0.4328178223222494 41.45089868269858 C-1.3183949222601954 29.833710416965165, -1.5260954728163783 21.237310343980774, -1.618236368522048 -1.88774492777884 M0.4991739271208644 41.624636051245005 C0.7057740409485996 28.478346529602987, -0.22516906069591636 14.928245553188017, 0.5622101007029414 0.4437710316851735" stroke="#000000" stroke-width="4" fill="none"></path></g><g transform="translate(135.75 518.75) rotate(0 19.5 20)"><path d="M-1.6974015291780233 0.7307850476354361 L38.72503441013396 -0.8639884237200022 L37.41479861177504 40.74378899298608 L-0.561519568786025 38.88889512978494" stroke="none" stroke-width="0" fill="#868e9655"></path><path d="M-0.19739272631704807 -0.34429205022752285 C11.27973343199119 0.8710563349444419, 20.5444324510172 -1.710484547642991, 40.781909143552184 -1.4637315925210714 M0.7154181273654103 -0.05157394427806139 C12.588115713652225 -1.3603763174358754, 23.521754042431716 0.3687452781852335, 38.72233634907752 0.8979063211008906 M40.446733152493834 -0.7439959701150656 C37.492262882739304 17.232437593862414, 38.69946656897664 29.505679400637746, 37.21562204323709 38.29164909757674 M39.48186999280006 0.34642245154827833 C39.306305589340624 12.865155695937574, 39.59727648105472 24.70824788045138, 39.87049922067672 39.86788128595799 M37.5679613109678 38.06044172681868 C24.942132799420506 39.478986554322766, 12.998286328278482 40.82963179844432, -1.724209750071168 38.671154314652085 M39.79250082094222 40.80712770204991 C29.545956638175994 40.07559677378274, 17.83209392055869 40.420565003314984, -0.5758003024384379 39.54360099416226 M-0.5491013173013926 38.330312544479966 C-1.3290006592869759 29.46825516782701, 0.757723443210125 21.073049979284406, -1.88774492777884 0.6645911876112223 M-0.37536394875496626 40.80682964902371 C0.3070762200281024 26.91345218475908, 0.7526167375966907 14.637341375462707, 0.4437710316851735 -0.7285295249894261" stroke="#000000" stroke-width="4" fill="none"></path></g><g transform="translate(33.25 519.75) rotate(0 10.5 23)"><text x="10.5" y="32" font-family="Virgil, Segoe UI Emoji" font-size="36px" fill="#000000" text-anchor="middle" style="white-space: pre;" direction="ltr">F</text></g><g transform="translate(142.25 519.75) rotate(0 14.5 23)"><text x="14.5" y="32" font-family="Virgil, Segoe UI Emoji" font-size="36px" fill="#000000" text-anchor="middle" style="white-space: pre;" direction="ltr">C</text></g><g transform="translate(185.25 517.25) rotate(0 19.5 20)"><path d="M-0.8639884237200022 -1.5852013882249594 L39.74378899298608 -0.561519568786025 L37.88889512978494 41.85680984891951 L-1.9317828062921762 38.9121574703604" stroke="none" stroke-width="0" fill="#868e9655"></path><path d="M1.1446073595434427 -0.6581474784761667 C9.878150660637768 1.6496126674395053, 21.166436774842445 0.08000093924812968, 38.80853688158095 1.883810793980956 M-0.9930332126095891 -0.7062058774754405 C15.226219079736621 -0.4625765948649496, 29.878167714551093 0.6511129171494394, 38.80434076767415 -0.6668036011978984 M40.88833414949477 -0.22226973809301853 C37.66867331787944 13.10908834822476, 37.142849903553724 29.980521736666564, 39.740734511986375 39.99562809430063 M39.47797744255513 0.4491295786574483 C39.072460354305804 14.79797919187695, 39.0064502665773 28.352514420636002, 38.45221890788525 40.05890252906829 M38.45601456798613 41.279211258515716 C30.899135255720466 38.19439632651396, 19.856105201877654 39.20852864739485, -0.14758444391191006 39.951307928189635 M39.085091727785766 39.46279194671661 C24.639306755643336 39.76010890155099, 8.962094590812917 39.499498410513624, -0.38541187066584826 39.783591088838875 M-1.8773880060762167 40.603558694943786 C-1.2842988774180413 27.210457706823945, 0.998528678715229 18.677622450515624, 0.8345590177923441 0.9983478542417288 M-0.12411345262080431 40.91952854115516 C0.23947824109345672 29.94522682670504, -1.0512613845989107 18.15421082545072, 0.36539252381771803 -0.13748279493302107" stroke="#000000" stroke-width="4" fill="none"></path></g><g transform="translate(237.25 518.25) rotate(0 19.5 20)"><path d="M-1.5852013882249594 0.743788992986083 L38.438480431213975 -1.1111048702150583 L40.85680984891951 38.068217193707824 L-1.0878425296396017 40.75325176678598" stroke="none" stroke-width="0" fill="#868e9655"></path><path d="M-0.6581474784761667 -1.4369335230439901 C12.810539645608515 -1.6869300276320427, 22.26955841947347 -0.41466155353002254, 40.883810793980956 1.4308362547308207 M-0.7062058774754405 0.7360883830115199 C11.221197966393085 1.2851892740186304, 23.833749095723036 0.19162372059188787, 38.3331963988021 0.7233665762469172 M38.77773026190698 -1.1825274880975485 C36.92972735837102 8.803657157346608, 38.90769444182515 21.764750631526116, 38.99562809430063 40.963739985600114 M39.44912957865745 -0.06610862631350756 C39.933762695454064 13.253571092151107, 39.56081795301289 26.223598520271484, 39.05890252906829 39.2839806554839 M40.279211258515716 40.80665981210768 C29.357928882632404 38.565077155409384, 22.454199836216866 39.74633839684539, -0.04869207181036472 41.585001641884446 M38.46279194671661 40.43005995731801 C23.57640165956691 39.57678676799871, 8.467993130534886 39.6477739031706, -0.2164089111611247 39.725449341349304 M0.6035586949437857 38.38176363147795 C-1.591111846268177 32.00396609865129, 0.7778502628207207 23.51330883987248, 0.9983478542417288 -0.7507278975099325 M0.9195285411551595 40.56221010070294 C0.254175822250545 24.044151878915727, -1.0382959740236402 9.910755331628025, -0.13748279493302107 -0.4319942118600011" stroke="#000000" stroke-width="4" fill="none"></path></g><g transform="translate(85.25 519.25) rotate(0 11.5 23)"><text x="11.5" y="32" font-family="Virgil, Segoe UI Emoji" font-size="36px" fill="#000000" text-anchor="middle" style="white-space: pre;" direction="ltr">E</text></g><g transform="translate(244.25 516.25) rotate(0 11.5 23)"><text x="11.5" y="32" font-family="Virgil, Segoe UI Emoji" font-size="36px" fill="#000000" text-anchor="middle" style="white-space: pre;" direction="ltr">E</text></g><g transform="translate(190.5 515) rotate(0 14.5 23)"><text x="14.5" y="32" font-family="Virgil, Segoe UI Emoji" font-size="36px" fill="#000000" text-anchor="middle" style="white-space: pre;" direction="ltr">C</text></g><g transform="translate(302.5 518) rotate(0 19.5 20)"><path d="M-0.26770431362092495 1.6450772043317556 L40.52173029817641 -0.5567767266184092 L38.83062940277159 40.3119011875242 L-0.21777701936662197 39.68549815379083" stroke="none" stroke-width="0" fill="#868e9655"></path><path d="M-1.7131867054849863 -1.23546046577394 C14.621547356899828 1.7264506706316025, 30.953632112033667 1.0044011363107712, 40.833179449662566 1.405214661732316 M0.7598403664305806 0.2543279705569148 C10.643492890056223 0.3994182876404375, 20.072552708908916 -0.7537356980983168, 39.22045483905822 -0.424463820643723 M37.519045328721404 0.8370627108961344 C40.62673494294286 14.94157318584621, 37.72569850161672 29.839168759062886, 38.06282321177423 41.53925555385649 M39.05455055553466 -0.7901337863877416 C38.66032106485218 14.170254259370267, 39.46843997444957 29.687819848768413, 39.585444149561226 39.97454346995801 M39.95134106837213 38.18471139110625 C28.670990552101284 40.27303778576665, 23.53630615826696 39.5868120734673, 0.8000868316739798 40.99145173467696 M38.500220713205636 39.15404714923352 C29.494905698020013 40.96082054839469, 21.473535575717687 40.65587403641082, -0.5694744912907481 40.89683090429753 M-1.8016144279390574 38.26994895376265 C0.5194839999079705 25.073023742064834, 1.6072209045290946 7.522821323946118, 1.8373897429555655 0.6402822080999613 M-0.4189877836033702 39.040697681717575 C-0.5529827015474439 29.318364924751222, -0.5697253184393049 19.010570551268753, 0.6666181059554219 0.32259257417172194" stroke="#000000" stroke-width="4" fill="none"></path></g><g transform="translate(354.5 519) rotate(0 19.5 20)"><path d="M1.6450772043317556 1.5217302981764078 L38.44322327338159 -0.16937059722840786 L39.3119011875242 39.78222298063338 L-0.31450184620916843 38.681381637230515" stroke="none" stroke-width="0" fill="#868e9655"></path><path d="M-1.23546046577394 -0.9121433738619089 C14.712464911583812 0.22032205807976424, 26.775679977051915 2.1672508572321387, 40.405214661732316 -0.8830635193735361 M0.2543279705569148 0.6654667528346181 C15.645295903924854 -0.17983730844222012, 29.391811742261055 -0.07588290384970608, 38.57553617935628 0.7069137068465352 M39.837062710896134 1.8541176673024893 C39.12243079468608 8.679253982380033, 39.19237154051662 18.5151687245816, 40.53925555385649 41.404840206727386 M38.20986621361226 -0.5480027226731181 C38.35812147948891 14.34335406217724, 39.06600665543228 28.75191990006715, 38.97454346995801 39.1878383429721 M37.18471139110625 38.20356008969247 C26.78494048109278 41.78695674178191, 13.834565704502161 40.98559834000655, 0.9914517346769571 38.36668459139764 M38.15404714923352 39.009940651245415 C31.59294912395999 39.30869156031869, 23.035775468498468 39.23561158685945, 0.8968309042975307 40.92458134610206 M-1.7300510462373495 40.70594707690179 C0.8121595576405525 27.929053211584687, -1.0397174760699273 14.108128203079104, 0.6402822080999613 -0.9375328067690134 M-0.9593023182824254 39.51779418904334 C-0.2279863966628909 26.793282666243613, -0.41084638368338344 15.251080294139683, 0.32259257417172194 -0.13385215681046247" stroke="#000000" stroke-width="4" fill="none"></path></g><g transform="translate(310.5 514) rotate(0 11.5 23)"><text x="11.5" y="32" font-family="Virgil, Segoe UI Emoji" font-size="36px" fill="#000000" text-anchor="middle" style="white-space: pre;" direction="ltr">E</text></g><g transform="translate(362 519) rotate(0 13 18)"><text x="13" y="25" font-family="Virgil, Segoe UI Emoji" font-size="28px" fill="#ff0000" text-anchor="middle" style="white-space: pre;" direction="ltr">T</text></g><g transform="translate(37.5 582) rotate(0 226.5 41.5)"><text x="226.5" y="14.75" font-family="Virgil, Segoe UI Emoji" font-size="16px" fill="#000000" text-anchor="middle" style="white-space: pre;" direction="ltr">Sure. But what if the prior sequence has no valid notes?</text><text x="226.5" y="35.5" font-family="Virgil, Segoe UI Emoji" font-size="16px" fill="#000000" text-anchor="middle" style="white-space: pre;" direction="ltr">It could be entirely transparent notes (What do we do</text><text x="226.5" y="56.25" font-family="Virgil, Segoe UI Emoji" font-size="16px" fill="#000000" text-anchor="middle" style="white-space: pre;" direction="ltr">if transparent notes stack?) or be a sequence of just</text><text x="226.5" y="77" font-family="Virgil, Segoe UI Emoji" font-size="16px" fill="#000000" text-anchor="middle" style="white-space: pre;" direction="ltr">empty notes (rests)</text></g><g transform="translate(30.5 682) rotate(0 272.5 10.5)"><text x="272.5" y="14" font-family="Virgil, Segoe UI Emoji" font-size="16px" fill="#000000" text-anchor="middle" style="white-space: pre;" direction="ltr">This hits some nasty walls of needing to keep track of prior values</text></g></svg>